<svg width="14" height="16" viewBox="0 0 14 16" fill="none" xmlns="http://www.w3.org/2000/svg">
<path d="M10.0471 10.1028L11.8528 11.8942L9.67282 12.2628L10.0471 10.1028Z" fill="white"/>
<path d="M6.92426 11.097C7.73533 11.097 8.39283 10.4459 8.39283 9.64276C8.39283 8.83958 7.73533 8.18848 6.92426 8.18848C6.11319 8.18848 5.45569 8.83958 5.45569 9.64276C5.45569 10.4459 6.11319 11.097 6.92426 11.097Z" fill="white"/>
<path d="M10.0471 10.1028L11.8528 11.8942L9.67282 12.2628L10.0471 10.1028Z" fill="white"/>
<path d="M6.92426 11.097C7.73533 11.097 8.39283 10.4459 8.39283 9.64276C8.39283 8.83958 7.73533 8.18848 6.92426 8.18848C6.11319 8.18848 5.45569 8.83958 5.45569 9.64276C5.45569 10.4459 6.11319 11.097 6.92426 11.097Z" fill="white"/>
<path d="M6.86717 0C3.19003 0 0.19574 2.96286 0.19574 6.60571C0.19574 9.45143 4.68145 14.0486 6.86431 16C6.86431 16 6.86431 16 6.86717 15.9971V14.6771L6.43288 14.26C4.01574 11.9257 1.19288 8.52 1.19288 6.60571C1.19288 3.50286 3.7386 0.977143 6.86717 0.977143C9.99574 0.977143 12.5415 3.50286 12.5415 6.60571C12.5415 7.58857 11.8386 8.99143 10.4529 10.7771L11.1586 11.4771C12.7186 9.48857 13.5386 7.81429 13.5386 6.60571C13.5386 2.96286 10.5443 0 6.86717 0Z" fill="white"/>
<path d="M4.04708 6.54565C4.04708 5.51422 4.5928 4.61136 5.40708 4.10565C5.55566 4.01422 5.64423 3.84851 5.64423 3.67137C5.64423 3.26851 5.20137 3.01708 4.86137 3.22851C3.7528 3.91708 3.01566 5.14279 3.01566 6.54279C3.01566 8.01708 3.83566 9.30279 5.04423 9.96565C5.02708 9.85994 5.01566 9.75422 5.01566 9.64279C5.01566 9.35422 5.08137 9.08279 5.19851 8.83708C4.49851 8.31708 4.04708 7.48279 4.04708 6.54565Z" fill="white"/>
<path d="M7.99573 3.56575C7.99573 3.75718 8.10144 3.93147 8.26716 4.02004C9.16716 4.50289 9.77858 5.45147 9.77858 6.54575C9.77858 7.47718 9.33287 8.3029 8.64716 8.82861C8.76716 9.07718 8.83573 9.35147 8.83573 9.64575C8.83573 9.75147 8.8243 9.85432 8.80716 9.95432C10.0043 9.28861 10.8129 8.01147 10.8129 6.54575C10.8129 5.06004 9.98144 3.77147 8.76144 3.11147C8.41573 2.92575 7.99573 3.17147 7.99573 3.56575Z" fill="white"/>
</svg>
