<svg width="16" height="16" viewBox="0 0 16 16" fill="none" xmlns="http://www.w3.org/2000/svg">
<path d="M2.295 0.47248L2.295 0.472488L2.29767 0.472061C2.41468 0.453338 2.59813 0.44743 2.79285 0.458494C2.99067 0.469734 3.15454 0.495921 3.23853 0.521919L3.23925 0.52214C3.28124 0.53506 3.31818 0.551129 3.34829 0.567198C3.34789 0.569482 3.34748 0.571788 3.34708 0.574115C3.32733 0.686579 3.29885 0.84279 3.26426 1.02907C3.19515 1.40125 3.10248 1.88909 3.0085 2.37746C2.91453 2.86578 2.81942 3.35375 2.74547 3.7261C2.70847 3.91243 2.67694 4.06893 2.65356 4.18177C2.64235 4.23589 2.63328 4.27869 2.62652 4.30941C2.61807 4.3194 2.60245 4.33627 2.57589 4.35897C2.52108 4.40581 2.44208 4.45806 2.34552 4.50518C2.06811 4.63866 1.9005 4.68091 1.44378 4.69848L1.44378 4.69845L1.43898 4.69869C1.24564 4.7082 1.14561 4.70842 1.07103 4.70269C1.0031 4.69746 0.945803 4.68659 0.83471 4.65958C0.642777 4.61223 0.533674 4.55953 0.477681 4.51921C0.473108 4.51592 0.469063 4.51285 0.465488 4.51C0.481433 4.44448 0.507713 4.34811 0.548412 4.20952C0.639813 3.89829 0.795696 3.40181 1.0465 2.62368C1.22311 2.081 1.38825 1.57917 1.51229 1.20865C1.57441 1.02308 1.62579 0.871775 1.66296 0.765161C1.67519 0.730088 1.68555 0.700791 1.69405 0.677237C1.69522 0.676399 1.69645 0.675533 1.69773 0.674639C1.72714 0.654146 1.77223 0.628524 1.83394 0.601465C1.95773 0.547196 2.12052 0.499323 2.295 0.47248ZM3.37439 0.408097C3.37442 0.407993 3.37427 0.409503 3.37381 0.412974C3.37412 0.409946 3.37435 0.408202 3.37439 0.408097ZM0.439922 4.48366C0.440097 4.48365 0.440842 4.48471 0.441635 4.48686C0.440144 4.48474 0.439748 4.48367 0.439922 4.48366ZM0.449013 4.58639C0.448484 4.59214 0.448064 4.59309 0.44878 4.58797L0.449013 4.58639ZM1.71495 0.621206C1.71867 0.612142 1.71815 0.614413 1.71409 0.623336C1.71445 0.622423 1.71474 0.621718 1.71495 0.621206Z" stroke="white" stroke-width="0.9"/>
<path d="M6.05403 0.00838295C6.57508 0.0276811 6.97391 0.156335 7.12186 0.355749C7.18619 0.439374 7.18619 0.503701 7.14759 2.38848C7.12829 3.46274 7.10256 4.39548 7.08327 4.45981C7.01894 4.71069 6.78093 4.89724 6.33707 5.04519C5.98971 5.16098 5.30141 5.18671 4.92831 5.10951C4.48445 5.01946 4.18212 4.83934 4.07276 4.60776C4.01487 4.49198 4.0213 4.44051 4.3172 2.47854M6.05403 0.00838295L6.64005 4.38505C6.63946 4.3901 6.63941 4.38891 6.64024 4.38335M6.05403 0.00838295C5.88678 0.00195025 5.64877 0.00838296 5.53942 0.0212484M6.05403 0.00838295L6.72085 0.597972M4.3172 2.47854L4.76201 2.54668C4.76204 2.5465 4.76207 2.54633 4.7621 2.54615M4.3172 2.47854C4.54878 0.966855 4.63884 0.452239 4.68387 0.387912M4.3172 2.47854L4.76217 2.54565C4.76215 2.54582 4.76212 2.54598 4.7621 2.54615M4.7621 2.54615C4.61338 3.53222 4.53955 4.02449 4.50936 4.2869C4.50198 4.35106 4.49781 4.3965 4.49573 4.42913C4.49553 4.43231 4.49535 4.43531 4.49519 4.43815M4.7621 2.54615C4.87788 1.79032 4.9576 1.28837 5.01373 0.968171C5.0415 0.809755 5.06245 0.701964 5.0782 0.632187M4.49519 4.43815C4.48708 4.42853 4.48213 4.42082 4.47967 4.41561L4.47978 4.41556L4.47525 4.40652C4.47465 4.40531 4.47438 4.40474 4.47439 4.40476C4.4744 4.40477 4.4747 4.40539 4.47522 4.40654C4.47605 4.40839 4.47745 4.41161 4.47913 4.41587C4.48129 4.42137 4.48389 4.4286 4.48632 4.43685C4.49309 4.45993 4.49415 4.47573 4.49421 4.47683C4.49421 4.47685 4.49419 4.47646 4.49416 4.47563C4.49415 4.47519 4.49414 4.47464 4.49412 4.47395L4.49414 4.46499C4.49425 4.45844 4.49455 4.44966 4.49519 4.43815ZM4.49519 4.43815C4.53932 4.49051 4.67713 4.59938 5.01779 4.6685L5.01948 4.66884C5.15574 4.69704 5.3803 4.71056 5.62303 4.70013C5.8684 4.6896 6.07914 4.65682 6.19477 4.61828C6.54467 4.50165 6.62374 4.3996 6.6421 4.36193M6.6421 4.36193C6.6421 4.36195 6.6421 4.36198 6.64209 4.362C6.64122 4.37335 6.64058 4.38013 6.64024 4.38335M6.6421 4.36193C6.6442 4.33448 6.64663 4.29354 6.64926 4.23856C6.6545 4.12928 6.66003 3.97622 6.66563 3.78939C6.67681 3.41638 6.68803 2.9166 6.69766 2.3804L6.69769 2.37927C6.71709 1.43181 6.72646 0.954842 6.72336 0.702203C6.72283 0.659332 6.72196 0.625216 6.72085 0.597972M6.6421 4.36193C6.64545 4.35506 6.64678 4.35033 6.64737 4.34804L6.64963 4.33922L6.65224 4.3305C6.6504 4.33663 6.6488 4.34253 6.64742 4.34806C6.64344 4.36391 6.64122 4.37673 6.64024 4.38335M6.64024 4.38335L6.72085 0.597972M6.72085 0.597972C6.74431 0.611225 6.75595 0.620815 6.75981 0.623996C6.76093 0.624918 6.76139 0.625302 6.76131 0.625082L6.76518 0.630119C6.76468 0.629472 6.76302 0.627304 6.76057 0.623808C6.75439 0.615011 6.74321 0.597804 6.73301 0.575257C6.71974 0.54592 6.71583 0.524817 6.71547 0.522766C6.7154 0.522381 6.71733 0.533685 6.71926 0.565694C6.71983 0.575218 6.72037 0.585923 6.72085 0.597972ZM6.72085 0.597972C6.69417 0.582892 6.65218 0.563068 6.58894 0.542543C6.45505 0.499088 6.26819 0.466623 6.03738 0.458075L6.03674 0.458051C5.88826 0.45234 5.68292 0.458529 5.59912 0.467373M5.59912 0.467373C5.60202 0.466917 5.60493 0.466464 5.60784 0.466016L5.53942 0.0212484M5.59912 0.467373C5.42364 0.495006 5.28001 0.536908 5.17662 0.581543C5.13012 0.601618 5.09858 0.619253 5.0782 0.632187M5.59912 0.467373C5.59664 0.467635 5.59426 0.4679 5.592 0.468166L5.53942 0.0212484M5.53942 0.0212484C5.12129 0.0855754 4.79966 0.227095 4.68387 0.387912M4.68387 0.387912L5.04906 0.650849C5.04722 0.653399 5.04624 0.654662 5.04637 0.654779C5.04671 0.655105 5.05558 0.646543 5.0782 0.632187M4.68387 0.387912L5.05252 0.64597C5.07591 0.612559 5.0889 0.582624 5.09389 0.569432M5.0782 0.632187C5.07845 0.631076 5.0787 0.629975 5.07895 0.628883C5.08651 0.595611 5.0915 0.577345 5.09389 0.569432M5.09389 0.569432C5.09404 0.568951 5.09418 0.568508 5.0943 0.568103C5.09701 0.55941 5.09708 0.561005 5.09389 0.569432Z" stroke="white" stroke-width="0.9"/>
<path d="M8.47235 2.39312L8.47233 2.39188C8.47096 2.32605 8.46963 2.26247 8.46834 2.20105C8.44828 1.24192 8.43923 0.809506 8.45612 0.594283C8.49218 0.578642 8.54439 0.558648 8.61027 0.537771C8.70672 0.507203 8.81322 0.480856 8.90956 0.465644C8.98476 0.45377 9.14846 0.44855 9.33758 0.459183C9.53086 0.47005 9.68171 0.493764 9.74265 0.513528L9.75858 0.518694L9.77485 0.522661C9.87277 0.546546 9.9708 0.583955 10.0466 0.62327C10.0647 0.632654 10.0801 0.6414 10.0929 0.649209C10.1074 0.714765 10.1264 0.813789 10.1513 0.957485C10.2042 1.26283 10.279 1.74349 10.3883 2.47338C10.4654 3.00319 10.536 3.4971 10.5872 3.86626C10.6129 4.05111 10.6336 4.2037 10.6478 4.31352C10.6549 4.36863 10.6602 4.41146 10.6636 4.4416C10.6637 4.44199 10.6637 4.44237 10.6638 4.44274C10.6592 4.44822 10.6519 4.45593 10.6407 4.46592C10.5885 4.51234 10.4821 4.576 10.2969 4.63601C10.1921 4.6694 9.99763 4.69903 9.76597 4.708C9.53768 4.71684 9.31882 4.70387 9.17256 4.67468C8.94846 4.62927 8.76299 4.55158 8.6396 4.4708C8.56377 4.42115 8.53201 4.38497 8.52007 4.36949C8.51907 4.34382 8.51753 4.30303 8.51561 4.24382C8.51204 4.13348 8.50764 3.97996 8.50283 3.79433C8.49321 3.42323 8.48198 2.92587 8.47235 2.39312ZM10.1344 0.678425C10.1344 0.678429 10.134 0.678033 10.1331 0.677224L10.1344 0.678425ZM10.0765 0.582989C10.0738 0.575763 10.0738 0.574309 10.076 0.581225C10.0761 0.581722 10.0763 0.582308 10.0765 0.582989ZM10.6708 4.43254C10.6709 4.43253 10.6705 4.43343 10.6694 4.43523C10.6701 4.43345 10.6707 4.43255 10.6708 4.43254Z" stroke="white" stroke-width="0.9"/>
<path d="M12.1237 0.483148L12.1234 0.48321C12.015 0.50291 11.9186 0.534125 11.8476 0.566987C11.8456 0.567941 11.8436 0.568888 11.8416 0.569827L11.9637 1.22278C12.0121 1.46792 12.0761 1.81166 12.1418 2.16494L12.1435 2.1742C12.2104 2.53346 12.2791 2.9027 12.3365 3.19614L12.3369 3.19816L12.3369 3.19816C12.4044 3.55153 12.4596 3.82879 12.5038 4.02743C12.526 4.12713 12.5443 4.20177 12.5589 4.25395L12.1237 0.483148ZM12.1237 0.483148C12.4259 0.427953 12.7853 0.444258 13.0871 0.513001C13.2369 0.54712 13.3578 0.59089 13.4424 0.63496C13.488 0.658707 13.5131 0.677281 13.5253 0.687362C13.5356 0.715773 13.5494 0.755192 13.5666 0.80555C13.6039 0.914598 13.6547 1.06713 13.7156 1.25268C13.8372 1.62323 13.9976 2.12028 14.1678 2.65341C14.4091 3.4159 14.5603 3.90307 14.6494 4.20925C14.6889 4.34481 14.7146 4.43932 14.7303 4.5039C14.7266 4.50686 14.7224 4.51007 14.7177 4.51351C14.6622 4.55373 14.5547 4.6061 14.3667 4.65323C14.1872 4.69685 14.1236 4.70408 13.7574 4.6919C13.3116 4.67422 13.1352 4.63108 12.8683 4.50787L12.8683 4.50783L12.8625 4.50524C12.7368 4.4494 12.6708 4.40752 12.6337 4.37711C12.6031 4.35202 12.588 4.33157 12.5741 4.30363L12.1237 0.483148ZM14.747 4.58169C14.7477 4.58663 14.7473 4.58567 14.7467 4.58005L14.747 4.58169ZM14.754 4.4806C14.7548 4.47848 14.7555 4.47743 14.7557 4.47744C14.7558 4.47745 14.7554 4.47851 14.754 4.4806Z" stroke="white" stroke-width="0.9"/>
<path d="M13.958 15.5203L13.9508 15.5239L13.9437 15.5278L13.903 15.55H7.59144H1.2755L1.23266 15.5277C1.2087 15.5138 1.20109 15.5065 1.20003 15.5055L1.19916 15.5045C1.19892 15.5042 1.19771 15.5025 1.19569 15.4986L1.17131 15.4477V10.6866V6.27349H7.59144H14.0116V10.693V15.4414L13.9909 15.4792C13.976 15.5056 13.9681 15.5138 13.967 15.5149L13.966 15.5157C13.9656 15.516 13.9634 15.5176 13.958 15.5203ZM9.34055 7.30458L9.34056 7.30457L9.33789 7.30328C8.88005 7.08151 8.47491 6.96354 7.9454 6.91317C7.8535 6.90334 7.76426 6.8949 7.69425 6.88965C7.65964 6.88705 7.62507 6.88488 7.59556 6.88397C7.58165 6.88355 7.56189 6.88317 7.54091 6.88396C7.53198 6.8843 7.51677 6.88505 7.49842 6.88721C7.46431 6.88956 7.42572 6.89347 7.39741 6.89638C7.341 6.90219 7.26922 6.91033 7.19374 6.92009C5.57592 7.07588 4.19908 8.23422 3.74377 9.79479C3.20735 11.6288 4.05419 13.6007 5.75355 14.4649L5.75357 14.4649C6.17168 14.6775 6.48401 14.782 6.92745 14.8607L6.92745 14.8607L6.93303 14.8616C8.03671 15.0431 9.20695 14.7392 10.0908 14.0365L10.0923 14.0352C11.9235 12.566 12.1144 9.8557 10.5043 8.15807C10.1442 7.77644 9.81707 7.53928 9.34055 7.30458Z" stroke="white" stroke-width="0.9"/>
<path d="M7.35572 9.28725L7.35573 9.28726L7.35767 9.28684C7.4983 9.25671 7.5428 9.25018 7.57599 9.24919C7.60108 9.24844 7.63553 9.2503 7.74962 9.27431L7.75664 9.27579L7.76371 9.27705C7.91975 9.30473 8.01014 9.34704 8.05726 9.3806C8.09799 9.40962 8.10466 9.42964 8.10759 9.44105L8.10742 9.4411L8.1108 9.45291C8.13902 9.55167 8.19854 9.67359 8.27498 9.76532L8.27484 9.76544L8.27908 9.77024C8.28077 9.77415 8.28384 9.78239 8.28738 9.79679C8.29707 9.83627 8.30576 9.90407 8.30576 10.0176C8.30576 10.1092 8.3087 10.2059 8.32314 10.2926C8.33161 10.3434 8.3531 10.4569 8.43041 10.564C8.43055 10.5768 8.42986 10.594 8.42726 10.6153C8.41644 10.7042 8.38149 10.7962 8.33998 10.8534L8.33997 10.8534L8.33812 10.856C8.25272 10.9756 8.14361 11.1748 8.07667 11.3087L8.07326 11.3155L8.07008 11.3225C8.0111 11.4511 7.96343 11.5211 7.92292 11.5656C7.88547 11.6067 7.84016 11.6416 7.7633 11.68C7.68425 11.7195 7.63071 11.729 7.59145 11.729C7.55218 11.729 7.49864 11.7195 7.41959 11.68L7.41961 11.68L7.41496 11.6777C7.30709 11.6253 7.22777 11.5622 7.10955 11.3155L7.10961 11.3155L7.10622 11.3087C7.03928 11.1748 6.93017 10.9756 6.84477 10.856L6.84478 10.856L6.84291 10.8534C6.79987 10.7941 6.76406 10.7007 6.75293 10.613C6.75056 10.5943 6.74974 10.5792 6.74966 10.5675C6.83388 10.4524 6.8535 10.3277 6.86079 10.2796C6.87422 10.191 6.87713 10.0885 6.87713 9.98542C6.87713 9.93041 6.88191 9.86029 6.89007 9.79166C6.898 9.7249 6.90707 9.67669 6.91232 9.65527C6.96516 9.48061 7.10419 9.34 7.35572 9.28725ZM8.2777 9.7674C8.27771 9.76738 8.27787 9.76766 8.27817 9.76826L8.2777 9.7674Z" stroke="white" stroke-width="0.9"/>
<path d="M5.65521 12.2691C5.37217 12.4363 5.102 12.7644 5.1406 12.893C5.17276 13.0024 5.69381 13.4655 5.94468 13.6199M5.65521 12.2691L5.86856 12.6653C5.87106 12.6639 5.8738 12.6625 5.87674 12.6609M5.65521 12.2691L5.88414 12.6565C5.88168 12.6579 5.87921 12.6594 5.87674 12.6609M5.65521 12.2691C5.73884 12.224 5.98971 12.1018 6.22129 12.0053C6.27668 11.9822 6.32986 11.9599 6.37898 11.9393C6.53524 11.8736 6.65046 11.8252 6.66515 11.8252C6.68042 11.8252 6.70777 11.8574 6.74083 11.8964C6.74955 11.9066 6.75867 11.9174 6.76807 11.9281M5.87674 12.6609C5.80794 12.7027 5.73535 12.7628 5.67507 12.8253M5.87674 12.6609C5.95477 12.6197 6.18278 12.5089 6.39437 12.4207C6.45204 12.3967 6.50426 12.3747 6.55189 12.3547C6.63181 12.4283 6.72031 12.493 6.80562 12.5463C6.94729 12.6347 7.12233 12.7177 7.29952 12.7545M5.67507 12.8253C5.63501 12.7873 5.60036 12.7527 5.57307 12.7235C5.55106 12.7 5.53853 12.685 5.53307 12.678M5.67507 12.8253C5.65697 12.844 5.63997 12.863 5.62452 12.8817C5.59016 12.9234 5.5751 12.95 5.57176 12.9571C5.57021 12.9604 5.57661 12.9482 5.58157 12.9229C5.58609 12.8999 5.59435 12.8413 5.57231 12.766C5.57208 12.7653 5.57185 12.7645 5.57162 12.7637L5.57232 12.766L5.57231 12.766C5.57208 12.7653 5.57185 12.7645 5.57162 12.7637C5.55875 12.721 5.54138 12.6907 5.53307 12.678M5.67507 12.8253C5.70163 12.8505 5.73056 12.8772 5.7613 12.9048C5.9189 13.0463 6.08617 13.178 6.17757 13.2348M5.53307 12.678C5.52761 12.6696 5.52607 12.6688 5.53231 12.677C5.53255 12.6773 5.5328 12.6776 5.53307 12.678ZM6.17757 13.2348C6.17639 13.2341 6.17521 13.2334 6.17403 13.2327L5.94468 13.6199M6.17757 13.2348C6.17856 13.2355 6.17955 13.2361 6.18053 13.2367L5.94468 13.6199M6.17757 13.2348C7.04166 13.7449 8.14326 13.7421 9.03935 13.208M5.94468 13.6199C6.95462 14.2182 8.23473 14.2117 9.27039 13.5942M9.27039 13.5942L9.03887 13.2083C9.03903 13.2082 9.03919 13.2081 9.03935 13.208M9.27039 13.5942C9.39904 13.517 9.63705 13.3304 9.79144 13.1825M9.27039 13.5942L9.03993 13.2077C9.03973 13.2078 9.03954 13.2079 9.03935 13.208M9.03935 13.208C9.13203 13.1523 9.34276 12.9891 9.47973 12.8579M9.79144 13.1825L9.47954 12.8581C9.4796 12.8581 9.47967 12.858 9.47973 12.8579M9.79144 13.1825C10.1259 12.8609 10.1259 12.8416 9.8429 12.5392C9.64349 12.3205 9.45051 12.2112 8.89729 11.9796M9.79144 13.1825L9.48008 12.8576C9.47997 12.8577 9.47985 12.8578 9.47973 12.8579M9.47973 12.8579C9.48802 12.85 9.49595 12.8423 9.50355 12.835M9.50355 12.835C9.50582 12.8374 9.50809 12.8399 9.51037 12.8424L9.51034 12.8424L9.51439 12.8468C9.54982 12.8846 9.57637 12.9133 9.5976 12.9375C9.6079 12.9492 9.61579 12.9586 9.62185 12.966C9.62793 12.9736 9.63127 12.9781 9.63276 12.9803C9.63426 12.9824 9.6329 12.9807 9.63008 12.9756C9.62723 12.9705 9.62217 12.9606 9.61696 12.9464C9.61165 12.932 9.60619 12.9132 9.60274 12.8906C9.59924 12.8678 9.59817 12.8436 9.6001 12.8188C9.60194 12.7951 9.60628 12.7739 9.61166 12.7557C9.61189 12.755 9.61211 12.7542 9.61233 12.7535C9.61293 12.7515 9.61352 12.7497 9.61413 12.7478C9.61924 12.7323 9.62471 12.7202 9.62892 12.712C9.63356 12.703 9.63707 12.6978 9.63774 12.6968C9.63841 12.6958 9.6372 12.6977 9.63299 12.7028C9.62882 12.7079 9.62264 12.715 9.61373 12.7247C9.60486 12.7343 9.59408 12.7456 9.5809 12.7589C9.55941 12.7807 9.53415 12.8054 9.50355 12.835ZM9.50355 12.835C9.37897 12.7 9.26244 12.6203 8.72562 12.3956M8.72562 12.3956L8.72773 12.3964L8.82589 12.1551L8.85008 12.1286L8.8403 12.1197L8.89729 11.9796M8.72562 12.3956L8.63327 12.358C8.26912 12.6986 7.79972 12.861 7.29952 12.7545M8.72562 12.3956C8.72492 12.3953 8.72423 12.395 8.72353 12.3947L8.82206 12.1593L7.29952 12.7545M8.89729 11.9796L8.8391 12.1186M8.89729 11.9796L8.51776 11.8252M8.8391 12.1186L7.39204 12.3141C7.75227 12.3913 8.09964 12.2691 8.38268 11.9731L8.51776 11.8252M8.8391 12.1186L8.51776 11.8252M8.8391 12.1186L8.51776 11.8252M7.29952 12.7545L6.42014 12.2138C6.41161 12.2039 6.40359 12.1944 6.39721 12.1869C6.39565 12.1851 6.39418 12.1834 6.39283 12.1818C6.3823 12.1694 6.37767 12.1641 6.37524 12.1614C6.3707 12.1565 6.38135 12.169 6.40192 12.1854C6.40526 12.1881 6.40987 12.1917 6.41569 12.1959L6.66515 12.0063L6.76807 11.9281M6.76807 11.9281L6.66515 12.0182L6.44202 12.2134L6.76807 11.9281Z" stroke="white" stroke-width="0.9"/>
</svg>
