<svg width="57" height="56" viewBox="0 0 57 56" fill="none" xmlns="http://www.w3.org/2000/svg">
<path d="M2.47563 56C0.515634 55.2099 -0.134365 53.9299 0.345635 51.8399C0.985635 48.9999 1.90564 46.2699 3.52564 43.8099C4.95564 41.6499 6.80564 39.9699 9.18564 38.8999C9.30564 38.8499 9.41563 38.7899 9.53563 38.7499C10.1156 38.5699 10.6756 38.8099 10.9056 39.3399C11.1356 39.8699 10.9556 40.4399 10.4056 40.7299C9.82563 41.0399 9.22563 41.3099 8.67563 41.6699C6.13563 43.3499 4.62563 45.7999 3.57563 48.5799C3.08563 49.8799 2.72564 51.2099 2.43564 52.5599C2.24564 53.4299 2.53563 53.7999 3.40563 53.7999C6.83563 53.7999 10.2556 53.7999 13.6856 53.7999C14.7156 53.7999 14.7356 53.7699 15.1456 52.8499C15.4556 52.1499 15.8256 51.4799 16.1756 50.7999C16.4156 50.3499 16.7956 50.18 17.3056 50.18C19.6556 50.22 22.0156 50.1699 24.3556 50.2799C28.2556 50.4599 31.9256 49.6699 35.5156 48.1599C41.3356 45.7099 47.1056 43.1399 52.9356 40.7199C53.1556 40.6299 53.3656 40.51 53.5356 40.36C54.2856 39.7 54.0556 38.5899 53.1156 38.2599C52.5656 38.0699 52.0356 38.1899 51.5056 38.3299C47.7956 39.3299 44.0956 40.33 40.3856 41.32C40.1856 41.37 40.0056 41.4199 39.8756 41.5999C39.3356 42.3199 38.5956 42.7799 37.7856 43.1399C34.8356 44.4799 31.8156 45.6499 28.6856 46.5099C28.4556 46.5699 28.2256 46.6399 27.9956 46.6199C27.4656 46.5999 27.0456 46.1599 26.9956 45.6299C26.9456 45.1299 27.2656 44.6499 27.8256 44.4899C29.2056 44.0999 30.5756 43.67 31.9356 43.18C33.5656 42.59 35.1656 41.9399 36.7356 41.2199C37.0956 41.0499 37.4556 40.8599 37.7756 40.6299C38.1856 40.3399 38.4656 39.9799 38.2656 39.4199C38.0756 38.8999 37.6256 38.5299 37.0556 38.5799C36.0756 38.6699 35.1056 38.8299 34.1356 38.9599C31.4856 39.2999 28.8456 39.82 26.1756 40C23.9556 40.16 21.7356 39.8499 19.5156 39.6699C18.8856 39.6199 18.5056 39.1199 18.5556 38.4999C18.6056 37.8899 19.0956 37.4699 19.7656 37.5099C20.6956 37.5599 21.6256 37.6099 22.5456 37.7199C25.0556 38.0299 27.5256 37.7099 29.9956 37.3399C32.1756 37.0099 34.3556 36.6999 36.5456 36.4099C38.2556 36.1799 39.7256 37.0499 40.3156 38.6499C40.4556 39.0099 40.5956 38.9999 40.9056 38.9199C44.2456 38.0099 47.5756 37.1099 50.9156 36.2099C51.7456 35.9799 52.5856 35.8499 53.4556 36.0599C54.7456 36.3699 55.6156 37.1399 56.0556 38.3999C56.1056 38.5299 56.0656 38.6999 56.2056 38.7999C56.2056 39.1999 56.2056 39.6 56.2056 40C55.7856 41.6 54.6856 42.4899 53.1756 42.9899C52.5556 43.1899 51.9656 43.49 51.3656 43.75C45.7556 46.16 40.1856 48.6699 34.4856 50.8899C32.2356 51.7699 29.9156 52.3399 27.4856 52.4099C24.6956 52.4999 21.9156 52.3699 19.1256 52.3699C17.7856 52.3699 17.7156 52.3299 17.2456 53.5999C16.7656 54.8699 15.9656 55.6699 14.6456 55.9799C10.5756 55.9999 6.52563 56 2.47563 56Z" fill="#2090FF"/>
<path d="M28.2156 0C31.0356 0 33.8656 0 36.6856 0C38.8356 0 40.2057 1.37 40.2057 3.52C40.2057 8 40.2156 12.49 40.1956 16.97C40.1956 17.39 40.2956 17.55 40.7356 17.51C41.0956 17.48 41.4756 17.48 41.8256 17.55C42.7356 17.72 43.3757 18.27 43.6757 19.15C43.9857 20.06 43.7756 20.89 43.1156 21.57C41.8856 22.84 40.6357 24.09 39.3857 25.34C36.2957 28.46 33.1957 31.57 30.0956 34.69C28.8356 35.96 27.5156 35.95 26.2456 34.68C21.9556 30.36 17.6656 26.04 13.3756 21.72C12.5556 20.89 12.3256 19.94 12.7456 18.98C13.2056 17.95 14.0257 17.49 15.1357 17.5C16.1357 17.51 16.1357 17.5 16.1357 16.52C16.1357 12.22 16.1357 7.92 16.1357 3.62C16.1357 1.36 17.4757 0.0100002 19.7257 0.0100002C22.5657 2.29105e-07 25.3956 0 28.2156 0ZM28.1756 2.19C25.4256 2.19 22.6756 2.19 19.9156 2.19C18.6356 2.19 18.3356 2.49 18.3356 3.77C18.3356 8.62 18.3356 13.47 18.3356 18.31C18.3356 19.31 17.9556 19.69 16.9456 19.69C16.3956 19.69 15.8556 19.68 15.3056 19.69C15.1156 19.69 14.8656 19.6 14.7856 19.85C14.7156 20.06 14.9356 20.16 15.0556 20.29C19.2756 24.55 23.5056 28.8 27.7156 33.07C28.0956 33.45 28.2956 33.43 28.6656 33.06C31.2856 30.39 33.9256 27.75 36.5556 25.1C38.1456 23.5 39.7356 21.89 41.3256 20.28C41.4456 20.16 41.6656 20.05 41.5856 19.84C41.5056 19.62 41.2757 19.69 41.1057 19.69C40.5557 19.68 40.0157 19.69 39.4657 19.69C38.3857 19.69 38.0357 19.33 38.0257 18.24C38.0257 13.37 38.0257 8.51 38.0257 3.64C38.0257 2.55 37.6756 2.19 36.5956 2.19C33.7857 2.19 30.9856 2.19 28.1756 2.19Z" fill="#2090FF"/>
<path d="M13.6157 38.6299C13.6157 38.0299 14.0857 37.5399 14.6757 37.5299C15.2757 37.5199 15.8057 38.0499 15.7857 38.6499C15.7657 39.2399 15.2757 39.7099 14.6757 39.7099C14.0757 39.7099 13.6157 39.2399 13.6157 38.6299Z" fill="#2090FF"/>
<path d="M33.0656 7.96994C33.0456 8.22994 32.9556 8.45994 32.8256 8.68994C30.3556 12.9599 27.8956 17.2399 25.4256 21.5099C25.0456 22.1699 24.4356 22.3699 23.8656 22.0499C23.3056 21.7299 23.1456 21.0799 23.5156 20.4399C25.9956 16.1299 28.4856 11.8299 30.9756 7.52994C31.2856 6.99994 31.7556 6.78994 32.2556 6.92994C32.7156 7.03994 33.0656 7.48994 33.0656 7.96994Z" fill="#2090FF"/>
<path d="M23.7956 6.88989C25.6056 6.88989 27.0756 8.32989 27.0856 10.1299C27.0956 11.9499 25.6056 13.4499 23.7956 13.4399C22.0056 13.4299 20.5256 11.9499 20.5256 10.1499C20.5256 8.34989 21.9856 6.88989 23.7956 6.88989ZM23.7956 11.2499C24.3656 11.2599 24.8756 10.7799 24.8956 10.1999C24.9156 9.58989 24.4356 9.07989 23.8256 9.07989C23.2356 9.06989 22.7456 9.52989 22.7256 10.1199C22.6956 10.7099 23.1956 11.2399 23.7956 11.2499Z" fill="#2090FF"/>
<path d="M32.5356 15.6399C34.3456 15.6299 35.8256 17.0699 35.8356 18.8699C35.8556 20.6899 34.3656 22.1999 32.5556 22.1899C30.7656 22.1899 29.2856 20.7099 29.2756 18.9199C29.2756 17.1099 30.7256 15.6399 32.5356 15.6399ZM33.6456 18.8999C33.6356 18.2899 33.1356 17.8099 32.5156 17.8299C31.9256 17.8499 31.4556 18.3299 31.4656 18.9199C31.4756 19.4999 31.9656 19.9899 32.5356 19.9999C33.1356 20.0099 33.6556 19.4999 33.6456 18.8999Z" fill="#2090FF"/>
</svg>
