<svg width="57" height="56" viewBox="0 0 57 56" fill="none" xmlns="http://www.w3.org/2000/svg">
<g clip-path="url(#clip0_604_12984)">
<path d="M26.9701 14.7699C27.0001 6.57994 33.6601 -0.0400638 41.8201 -6.38224e-05C49.9901 0.0399362 56.6301 6.71994 56.5901 14.8599C56.5501 23.0399 49.9001 29.6499 41.7301 29.6099C33.5201 29.5799 26.9401 22.9499 26.9701 14.7699ZM54.2401 14.8299C54.2501 7.93994 48.7201 2.37994 41.8301 2.34994C34.9301 2.31994 29.3101 7.88994 29.2901 14.7699C29.2701 21.6499 34.8601 27.2799 41.7501 27.2999C48.6301 27.3199 54.2301 21.7299 54.2401 14.8299Z" fill="#2090FF"/>
<path d="M16.82 55.99C11.74 55.99 6.65005 55.98 1.57005 56C1.09005 56 0.940047 55.89 0.890047 55.39C0.700047 53.5 0.460047 51.62 0.740047 49.72C1.44005 44.93 4.08005 41.56 8.50005 39.76C14.3 37.39 20.19 37.43 25.89 40.07C30.61 42.25 32.93 46.16 33.13 51.34C33.18 52.73 33.1 54.1 32.8 55.47C32.71 55.87 32.56 56.01 32.13 56.01C27.03 55.98 21.92 55.99 16.82 55.99ZM16.92 53.64C21.04 53.64 25.16 53.64 29.27 53.64C30.78 53.64 30.78 53.64 30.79 52.13C30.82 46.88 28.31 43.24 23.45 41.55C19.83 40.29 16.13 40.18 12.4 40.93C9.82005 41.45 7.49005 42.5 5.65005 44.45C3.30005 46.94 2.72005 49.97 2.99005 53.26C3.03005 53.7 3.31005 53.64 3.59005 53.64C8.04005 53.64 12.48 53.64 16.92 53.64Z" fill="#2090FF"/>
<path d="M20.36 3.93994C19.64 3.63994 19.02 3.34994 18.39 3.11994C18.05 2.99994 18 2.83994 18.16 2.53994C18.45 1.98994 18.48 1.10994 18.97 0.939937C19.41 0.789937 20.07 1.28994 20.63 1.51994C22.14 2.13994 23.63 2.77994 25.14 3.38994C25.49 3.52994 25.53 3.67994 25.39 4.00994C24.57 5.93994 23.75 7.87994 22.96 9.82994C22.81 10.1899 22.67 10.2299 22.34 10.0699C21.92 9.85994 21.47 9.68994 21.03 9.51994C20.72 9.40994 20.63 9.27994 20.78 8.93994C21.18 8.05994 21.53 7.15994 21.9 6.26994C21.94 6.16994 21.96 6.06994 22.02 5.89994C20.12 6.43994 18.39 7.18994 16.78 8.18994C10.84 11.8499 7.16004 17.1099 5.86004 23.9699C5.22004 27.3099 5.36004 30.6499 6.35004 33.9299C6.45004 34.2499 6.46004 34.4499 6.06004 34.5399C5.60004 34.6499 5.15004 34.7999 4.71004 34.9899C4.34004 35.1399 4.22004 35.0199 4.12004 34.6799C3.61004 32.9599 3.29004 31.2099 3.21004 29.4299C2.73004 18.7099 8.54004 9.21994 18.29 4.78994C18.93 4.49994 19.6 4.24994 20.36 3.93994Z" fill="#2090FF"/>
<path d="M25.2 28.3698C25.19 32.9398 21.46 36.6498 16.89 36.6298C12.33 36.6098 8.64004 32.8698 8.65004 28.2898C8.67004 23.7598 12.39 20.0498 16.93 20.0598C21.51 20.0698 25.21 23.7898 25.2 28.3698ZM16.94 34.2798C20.22 34.2698 22.88 31.6198 22.88 28.3498C22.88 25.0598 20.2 22.3998 16.89 22.4098C13.63 22.4198 10.96 25.1198 10.98 28.3698C11 31.6498 13.66 34.2798 16.94 34.2798Z" fill="#2090FF"/>
<path d="M42.22 49.49C43.04 49.69 43.83 49.91 44.63 50.07C45.02 50.15 45.07 50.32 44.98 50.65C44.85 51.12 44.74 51.6 44.63 52.09C44.57 52.37 44.44 52.44 44.16 52.37C42.08 51.86 40 51.37 37.92 50.87C37.65 50.81 37.62 50.69 37.67 50.43C38.14 48.36 38.6 46.29 39.04 44.21C39.1 43.92 39.19 43.83 39.49 43.91C39.98 44.04 40.48 44.16 40.99 44.24C41.37 44.3 41.39 44.47 41.31 44.79C41.1 45.67 40.92 46.56 40.71 47.52C41.17 47.34 41.49 47.08 41.82 46.84C46.69 43.31 49.82 38.63 51.15 32.76C51.23 32.39 51.36 32.3 51.72 32.41C52.1 32.53 52.5 32.62 52.89 32.64C53.48 32.67 53.54 32.92 53.42 33.43C52.29 38.22 50.03 42.37 46.57 45.87C45.35 47.1 44.02 48.19 42.58 49.16C42.44 49.24 42.28 49.27 42.22 49.49Z" fill="#2090FF"/>
<path d="M41.74 22.75C41.61 22.75 41.47 22.73 41.34 22.75C40.77 22.84 40.48 22.65 40.6 22.03C40.66 21.69 40.43 21.59 40.17 21.48C38.78 20.87 37.98 19.78 37.72 18.29C37.66 17.91 37.7 17.66 38.19 17.73C38.43 17.76 38.68 17.75 38.93 17.73C39.54 17.69 40.04 17.67 40.24 18.5C40.43 19.28 41.4 19.62 42.22 19.42C43.02 19.22 43.55 18.49 43.51 17.64C43.48 16.82 42.91 16.15 42.1 16.02C41.65 15.95 41.19 15.94 40.75 15.83C39.07 15.41 37.86 13.99 37.71 12.33C37.55 10.52 38.46 8.88996 40.09 8.18996C40.5 8.01996 40.67 7.81996 40.6 7.39996C40.54 6.99996 40.72 6.86996 41.11 6.88996C41.56 6.91996 42.02 6.91996 42.48 6.88996C42.86 6.85996 43 7.00996 42.94 7.37996C42.87 7.81996 43.05 8.01996 43.47 8.20996C44.85 8.83996 45.63 9.93996 45.82 11.46C45.87 11.82 45.75 11.95 45.39 11.92C45.11 11.9 44.82 11.91 44.54 11.92C43.98 11.93 43.5 12.02 43.33 11.18C43.17 10.38 42.18 10.01 41.33 10.22C40.52 10.42 39.97 11.16 40.02 11.99C40.07 12.88 40.71 13.58 41.6 13.64C42.13 13.68 42.66 13.72 43.16 13.9C44.74 14.46 45.78 15.91 45.84 17.64C45.9001 19.29 44.94 20.81 43.4 21.48C43.09 21.61 42.86 21.73 42.94 22.11C43.06 22.69 42.78 22.84 42.26 22.76C42.09 22.73 41.91 22.75 41.74 22.75Z" fill="#2090FF"/>
</g>
<defs>
<clipPath id="clip0_604_12984">
<rect width="56" height="56" fill="white" transform="translate(0.600037)"/>
</clipPath>
</defs>
</svg>
