<svg width="56" height="56" viewBox="0 0 56 56" fill="none" xmlns="http://www.w3.org/2000/svg">
<g clip-path="url(#clip0_604_12974)">
<path d="M33.49 6.11011C38.59 6.11011 43.7 6.11011 48.8 6.11011C53 6.11011 55.99 9.10011 55.99 13.3201C56 18.5101 56 23.6901 56 28.8801C56 32.4401 53.88 35.1301 50.4 35.9501C50.04 36.0401 49.99 36.1901 49.99 36.4901C50 37.5701 50 38.6601 49.99 39.7401C49.99 41.0201 49.44 42.0101 48.28 42.5701C47.12 43.1301 46.01 42.9501 45.01 42.1301C42.48 40.0601 39.95 37.9901 37.42 35.9201C36.87 35.4601 36.77 34.8601 37.16 34.4001C37.54 33.9501 38.15 33.9501 38.71 34.4101C41.16 36.4101 43.62 38.4101 46.06 40.4201C46.47 40.7501 46.87 41.0301 47.41 40.7601C47.96 40.4901 47.98 40.0001 47.98 39.4801C47.97 38.1101 47.97 36.7301 47.98 35.3601C47.98 34.4901 48.3 34.1601 49.17 34.1001C51.9 33.9201 53.96 31.7801 53.98 29.0601C54 23.7301 54 18.4001 53.98 13.0601C53.97 10.2701 51.81 8.11011 49.01 8.11011C38.66 8.10011 28.31 8.10011 17.95 8.11011C15.16 8.11011 13 10.2801 12.99 13.0701C12.97 18.4201 12.97 23.7801 12.99 29.1301C13 31.9501 15.16 34.0901 18.01 34.1001C22.68 34.1101 27.34 34.1001 32.01 34.1001C32.22 34.1001 32.43 34.0801 32.63 34.1201C33.17 34.2201 33.49 34.5501 33.48 35.1101C33.48 35.6701 33.15 35.9901 32.62 36.0901C32.44 36.1201 32.25 36.1101 32.06 36.1101C27.44 36.1101 22.81 36.1101 18.19 36.1101C13.99 36.1101 11 33.1201 10.99 28.9001C11 23.7101 11 18.5301 11 13.3401C11 9.09011 13.99 6.11011 18.24 6.11011C23.33 6.11011 28.41 6.11011 33.49 6.11011Z" fill="#2090FF"/>
<path d="M23.98 21.13C23.96 15.93 28.2 11.66 33.41 11.63C38.68 11.6 43.04 15.89 42.97 21.2C42.89 26.78 38.42 30.61 33.53 30.62C28.22 30.63 24 26.44 23.98 21.13ZM30.29 25.26C30.85 25.26 31.41 25.26 31.98 25.26C32.74 25.25 33.17 24.9 33.18 24.3C33.19 23.67 32.75 23.28 31.96 23.27C31.23 23.26 30.5 23.25 29.77 23.27C29.22 23.28 29.42 22.88 29.39 22.61C29.36 22.32 29.36 22.08 29.79 22.1C30.54 22.13 31.29 22.12 32.04 22.11C32.79 22.1 33.17 21.76 33.19 21.01C33.21 20.03 33.21 19.05 33.19 18.07C33.17 17.32 32.8 16.98 32.05 16.97C30.88 16.96 29.72 16.96 28.55 16.97C27.86 16.98 27.42 17.36 27.4 17.94C27.38 18.53 27.85 18.96 28.56 18.97C29.27 18.98 29.98 19.01 30.68 18.96C31.18 18.93 31.2 19.18 31.2 19.56C31.2 19.92 31.17 20.14 30.7 20.12C29.95 20.08 29.2 20.1 28.45 20.11C27.79 20.13 27.4 20.5 27.39 21.17C27.37 22.19 27.37 23.21 27.39 24.23C27.41 24.89 27.79 25.24 28.47 25.26C29.08 25.28 29.68 25.26 30.29 25.26ZM39.52 21.15C39.52 20.09 39.53 19.03 39.51 17.96C39.5 17.39 39.11 17.01 38.58 16.98C38.05 16.96 37.62 17.3 37.54 17.86C37.5 18.17 37.52 18.48 37.52 18.8C37.52 20.21 37.52 20.2 36.12 20.12C35.82 20.1 35.73 20.01 35.73 19.72C35.75 19.16 35.75 18.6 35.73 18.03C35.71 17.35 35.3 16.94 34.69 16.96C34.11 16.98 33.75 17.38 33.74 18.05C33.73 19.01 33.73 19.97 33.74 20.92C33.75 21.75 34.1 22.1 34.91 22.11C35.64 22.12 36.37 22.13 37.1 22.11C37.43 22.1 37.54 22.21 37.52 22.54C37.5 23.08 37.5 23.62 37.52 24.16C37.54 24.86 37.93 25.27 38.53 25.26C39.14 25.26 39.5 24.85 39.51 24.14C39.53 23.14 39.52 22.14 39.52 21.15Z" fill="#2090FF"/>
<path d="M28.61 43.11C25.38 43.11 22.15 43.12 18.92 43.1C18.52 43.1 18.22 43.21 17.91 43.47C15.66 45.33 13.39 47.16 11.15 49.01C10.11 49.87 8.98003 50.17 7.74003 49.59C6.50003 49 5.98003 47.95 6.00003 46.59C6.02003 45.57 5.99003 44.55 6.01003 43.53C6.01003 43.2 5.96003 43.04 5.57003 42.95C2.18003 42.17 0.010033 39.45 0.010033 35.98C3.2959e-05 30.73 3.2959e-05 25.48 0.010033 20.23C0.020033 16.11 3.04003 13.12 7.17003 13.11C7.46003 13.11 7.75003 13.09 8.04003 13.12C8.60003 13.16 8.99003 13.57 9.00003 14.09C9.01003 14.63 8.61003 15.07 8.03003 15.11C7.35003 15.16 6.66003 15.08 5.98003 15.22C3.74003 15.68 2.04003 17.62 2.03003 19.9C2.00003 25.34 2.00003 30.77 2.03003 36.21C2.05003 38.79 4.14003 40.91 6.72003 41.1C7.75003 41.17 8.00003 41.45 8.00003 42.5C8.00003 43.81 8.01003 45.12 8.00003 46.44C7.99003 46.97 8.05003 47.46 8.59003 47.71C9.13003 47.96 9.54003 47.67 9.94003 47.34C12.31 45.4 14.68 43.47 17.04 41.52C17.45 41.19 17.87 41.01 18.4 41.01C25.21 41.02 32.02 41.02 38.83 41.02C39.48 41.02 39.92 41.38 39.98 41.93C40.04 42.48 39.68 42.93 39.03 43.03C38.64 43.09 38.24 43.11 37.85 43.11C34.78 43.11 31.69 43.11 28.61 43.11Z" fill="#2090FF"/>
</g>
<defs>
<clipPath id="clip0_604_12974">
<rect width="56" height="56" fill="white"/>
</clipPath>
</defs>
</svg>
