<svg width="57" height="56" viewBox="0 0 57 56" fill="none" xmlns="http://www.w3.org/2000/svg">
<g clip-path="url(#clip0_604_12958)">
<path d="M56.16 37.0001C55.72 38.4601 54.67 39.2101 53.24 39.5701C52.33 39.8001 51.45 40.1401 50.56 40.4101C50.23 40.5101 49.99 40.6901 49.81 40.9901C48.18 43.7401 45.86 45.7501 43.09 47.2901C42.78 47.4601 42.62 47.6501 42.55 48.0201C42.23 49.8301 41.88 51.6401 41.53 53.4501C41.3 54.6001 40.57 55.2001 39.4 55.2101C38.23 55.2201 37.05 55.2201 35.88 55.2101C34.76 55.2001 34.03 54.6201 33.8 53.5301C33.61 52.6701 33.44 51.8001 33.3 50.9201C33.24 50.5601 33.12 50.4901 32.77 50.5301C30.69 50.8001 28.59 50.8701 26.5 50.7701C26.03 50.7501 25.56 50.7201 25.1 50.6601C24.78 50.6201 24.65 50.7301 24.6 51.0501C24.48 51.8201 24.32 52.5801 24.17 53.3401C23.94 54.5901 23.22 55.2001 21.97 55.2001C20.85 55.2101 19.73 55.2001 18.61 55.2001C17.32 55.2001 16.61 54.5901 16.37 53.3101C16.06 51.6601 15.72 50.0201 15.43 48.3601C15.37 48.0001 15.21 47.8001 14.9 47.6201C10.74 45.2101 8.07001 41.7001 7.10001 36.9501C6.79001 35.4401 6.69001 33.9101 6.75001 32.3701C6.76001 32.2001 6.92001 31.9601 6.59001 31.8801C6.32001 31.8201 6.27001 32.0301 6.16001 32.1901C5.14001 33.7501 3.83001 34.9001 1.87001 35.0601C1.76001 35.0701 1.65001 35.0701 1.55001 35.0701C1.01001 35.0401 0.660008 34.7201 0.650008 34.2501C0.640008 33.7801 0.960008 33.4401 1.50001 33.3901C2.72001 33.2901 3.70001 32.7501 4.47001 31.8001C4.51001 31.7501 4.55001 31.6801 4.58001 31.6201C4.44001 31.4801 4.28001 31.4801 4.13001 31.4401C3.62001 31.3101 3.13001 31.1401 2.66001 30.8901C1.26001 30.1401 0.890008 28.9501 1.68001 27.7001C2.50001 26.3901 3.90001 26.1001 5.13001 26.9901C6.10001 27.6901 6.56001 28.6801 6.70001 29.8401C6.72001 29.9701 6.65001 30.1301 6.82001 30.2501C7.00001 30.1501 6.99001 29.9601 7.02001 29.8001C7.86001 25.0101 10.4 21.3901 14.56 18.9001C15.1 18.5801 15.58 18.6501 15.83 19.0801C16.09 19.5201 15.94 19.9501 15.38 20.2901C11.84 22.4201 9.55001 25.4701 8.71001 29.5401C8.13001 32.3801 8.18001 35.2201 9.02001 38.0101C10.12 41.6501 12.41 44.3401 15.7 46.1901C16.49 46.6301 16.88 47.1901 17.02 48.0701C17.28 49.7101 17.65 51.3301 17.94 52.9601C18.02 53.4001 18.2 53.5801 18.65 53.5701C19.73 53.5501 20.82 53.5501 21.9 53.5701C22.33 53.5801 22.51 53.4101 22.58 52.9901C22.73 52.1201 22.91 51.2501 23.07 50.3801C23.27 49.2601 23.69 48.9001 24.8 49.0001C27.62 49.2701 30.43 49.2101 33.23 48.8101C34.04 48.6901 34.59 49.1401 34.76 49.9901C34.95 50.9801 35.15 51.9701 35.31 52.9701C35.38 53.4201 35.59 53.5701 36.03 53.5601C37.1 53.5401 38.16 53.5301 39.23 53.5601C39.72 53.5801 39.89 53.3601 39.97 52.9201C40.31 51.0401 40.69 49.1601 41.02 47.2801C41.12 46.6901 41.41 46.3101 41.94 46.0301C44.66 44.5901 46.93 42.6601 48.5 39.9701C48.86 39.3601 49.42 39.0201 50.08 38.8101C51.15 38.4801 52.21 38.1401 53.28 37.7901C54.21 37.4901 54.52 37.0601 54.52 36.0701C54.52 34.9501 54.52 33.8301 54.52 32.7101C54.52 31.8801 54.2 31.4401 53.42 31.1701C52.77 30.9501 52.12 30.7401 51.46 30.5401C50.48 30.2501 49.85 29.6201 49.54 28.6501C49.07 27.1901 48.35 25.8601 47.41 24.6601C47.3 24.5201 47.23 24.3501 47.03 24.2801C46.87 24.4001 46.85 24.5801 46.79 24.7401C46.03 26.6701 44.55 27.4701 42.54 27.4701C38.85 27.4501 36.17 24.8401 36.08 21.1501C36.06 20.3201 36.1 19.4901 36.28 18.6701C36.36 18.3101 36.29 18.1601 35.89 18.0401C35.17 17.8201 34.7 17.9101 34.25 18.6001C33.59 19.6201 32.61 20.3601 31.53 21.0901C32.01 21.2401 32.42 21.3701 32.83 21.5001C33.4 21.7001 33.63 22.0701 33.49 22.5501C33.35 23.0101 32.91 23.2101 32.34 23.0301C30.03 22.2801 27.67 21.9301 25.25 21.9701C23.16 22.0101 21.12 22.3401 19.12 22.9701C18.88 23.0501 18.65 23.1501 18.38 23.0801C18.03 22.9901 17.81 22.7701 17.76 22.4101C17.71 22.0001 17.89 21.6901 18.27 21.5501C18.72 21.3801 19.19 21.2601 19.65 21.1101C19.62 20.9101 19.46 20.8801 19.35 20.8001C15.64 18.1801 13.88 13.6801 14.87 9.34008C15.89 4.89008 19.44 1.56008 23.95 0.840077C28.55 0.180077 33.3 2.57008 35.4 6.67008C35.69 7.24008 35.6 7.70008 35.15 7.94008C34.73 8.17008 34.31 8.00008 34 7.47008C33.97 7.42008 33.95 7.38008 33.92 7.33008C31.99 4.03008 29.12 2.36008 25.3 2.42008C20.97 2.49008 17.18 5.80008 16.39 10.1301C15.59 14.4801 18.01 18.9001 22.05 20.5201C22.33 20.6301 22.61 20.6401 22.9 20.6001C24.74 20.3601 26.58 20.3601 28.41 20.6001C28.72 20.6401 29.01 20.6301 29.31 20.5001C32.71 18.9301 34.64 16.3001 35.03 12.5601C35.05 12.4201 35.05 12.2701 35.08 12.1301C35.19 11.6801 35.49 11.4501 35.95 11.5001C36.42 11.5501 36.66 11.8401 36.65 12.3101C36.63 13.5701 36.36 14.7801 35.87 15.9401C35.7 16.3401 35.79 16.4101 36.18 16.5401C36.93 16.7901 37.56 16.6801 38.28 16.3501C40.29 15.4001 42.34 14.5501 44.52 14.0901C44.68 14.0601 44.84 14.0301 45 14.0101C46.86 13.7701 47.64 14.3601 47.91 16.2401C48.2 18.1801 48.02 20.1001 47.64 22.0001C47.58 22.3001 47.62 22.5001 47.83 22.7201C49.31 24.3001 50.4 26.1101 51.07 28.1701C51.22 28.6401 51.51 28.9401 51.99 29.0701C52.41 29.1901 52.81 29.3501 53.23 29.4501C54.67 29.7801 55.71 30.5501 56.16 32.0101C56.16 33.6801 56.16 35.3401 56.16 37.0001ZM46.43 18.2201C46.42 17.6101 46.42 16.9601 46.29 16.3201C46.13 15.5401 46.01 15.4401 45.24 15.5901C42.86 16.0401 40.68 17.0301 38.49 18.0101C38.17 18.1501 38 18.4101 37.93 18.7601C37.72 19.7001 37.65 20.6501 37.74 21.6101C37.94 23.7801 39.25 25.3601 41.38 25.7601C44.18 26.2801 44.88 25.5201 45.58 23.4701C46.15 21.7801 46.4 20.0401 46.43 18.2201ZM5.06001 29.7801C5.03001 29.1801 4.44001 28.3701 3.91001 28.1801C3.43001 28.0101 3.22001 28.3401 3.01001 28.6601C2.79001 29.0001 2.95001 29.2301 3.25001 29.4101C3.73001 29.7001 4.27001 29.8501 4.81001 29.9701C4.99001 30.0101 5.10001 30.0001 5.06001 29.7801Z" fill="#2090FF"/>
<path d="M37.6 55.46C37.03 55.46 36.45 55.46 35.88 55.45C34.64 55.44 33.82 54.78 33.57 53.58C33.39 52.75 33.21 51.85 33.07 50.96C33.05 50.8 33.01 50.77 33.01 50.77C33.01 50.77 32.98 50.75 32.81 50.77C30.76 51.04 28.63 51.12 26.49 51.01C26.04 50.99 25.55 50.96 25.07 50.9C24.89 50.88 24.87 50.88 24.84 51.08C24.76 51.6 24.66 52.12 24.56 52.63L24.42 53.37C24.17 54.73 23.35 55.43 21.98 55.43C20.86 55.44 19.74 55.43 18.62 55.43C17.22 55.43 16.41 54.74 16.14 53.35C16.04 52.8 15.93 52.26 15.82 51.71C15.61 50.61 15.39 49.5 15.19 48.4C15.14 48.12 15.04 47.98 14.78 47.83C10.49 45.34 7.82001 41.7 6.86001 37C6.56001 35.53 6.44001 34.01 6.50001 32.36C6.50001 32.31 6.51001 32.25 6.53001 32.19C6.54001 32.16 6.55001 32.11 6.55001 32.09L6.49001 32.12C6.48001 32.13 6.44001 32.19 6.42001 32.23C6.40001 32.28 6.38001 32.31 6.36001 32.35C5.13001 34.23 3.71001 35.18 1.89001 35.33C1.77001 35.34 1.65001 35.35 1.53001 35.34C0.870008 35.3 0.420008 34.88 0.400008 34.28C0.380008 33.67 0.820008 33.23 1.48001 33.17C2.60001 33.08 3.50001 32.61 4.22001 31.73C4.20001 31.73 4.19001 31.72 4.17001 31.72L4.07001 31.7C3.46001 31.54 2.98001 31.36 2.55001 31.13C1.77001 30.72 1.27001 30.16 1.10001 29.51C0.940008 28.91 1.07001 28.25 1.48001 27.6C1.92001 26.9 2.55001 26.44 3.24001 26.31C3.92001 26.18 4.63001 26.36 5.27001 26.83C6.12001 27.44 6.64001 28.28 6.87001 29.37C7.79001 24.77 10.33 21.19 14.44 18.73C14.79 18.52 15.14 18.45 15.44 18.52C15.69 18.58 15.9 18.74 16.04 18.99C16.37 19.55 16.17 20.13 15.51 20.53C11.96 22.66 9.76001 25.72 8.95001 29.62C8.35001 32.51 8.46001 35.32 9.25001 37.97C10.3 41.45 12.51 44.15 15.81 46.01C16.67 46.49 17.1 47.11 17.26 48.07C17.41 49.03 17.61 49.99 17.79 50.93C17.92 51.6 18.06 52.28 18.18 52.96C18.24 53.3 18.34 53.37 18.65 53.37C19.71 53.35 20.81 53.35 21.91 53.37C22.21 53.38 22.3 53.3 22.35 53C22.44 52.48 22.54 51.97 22.64 51.45C22.71 51.1 22.78 50.74 22.84 50.39C23.07 49.12 23.61 48.7 24.83 48.81C27.65 49.08 30.46 49.02 33.2 48.62C34.13 48.48 34.81 49 35 49.99L35.05 50.24C35.23 51.14 35.41 52.06 35.56 52.98C35.61 53.3 35.71 53.37 36.04 53.37C37.29 53.34 38.31 53.34 39.25 53.37C39.58 53.38 39.68 53.29 39.75 52.93C39.91 52.05 40.08 51.18 40.24 50.3C40.43 49.3 40.62 48.29 40.8 47.29C40.92 46.64 41.25 46.19 41.84 45.87C44.74 44.33 46.86 42.38 48.31 39.9C48.66 39.3 49.22 38.88 50.03 38.63C51.1 38.3 52.16 37.96 53.23 37.62C54.06 37.35 54.3 37.02 54.3 36.14C54.3 35.02 54.3 33.9 54.3 32.78C54.3 32.06 54.04 31.7 53.36 31.47C52.71 31.25 52.06 31.04 51.41 30.84C50.36 30.53 49.66 29.84 49.33 28.79C48.88 27.39 48.18 26.07 47.24 24.87C47.21 24.83 47.19 24.8 47.16 24.76C47.14 24.73 47.12 24.71 47.11 24.69C47.1 24.71 47.09 24.74 47.08 24.77C47.07 24.81 47.05 24.86 47.03 24.9C46.28 26.81 44.78 27.78 42.59 27.78C42.58 27.78 42.57 27.78 42.56 27.78C38.71 27.76 35.95 25.07 35.86 21.22C35.84 20.23 35.9 19.42 36.07 18.68C36.12 18.45 36.13 18.42 35.84 18.34C35.15 18.13 34.84 18.24 34.47 18.8C33.89 19.69 33.1 20.37 32.1 21.08C32.39 21.17 32.66 21.25 32.93 21.35C33.62 21.59 33.92 22.09 33.74 22.71C33.66 22.98 33.49 23.19 33.26 23.31C32.99 23.45 32.65 23.46 32.28 23.35C30.01 22.61 27.64 22.27 25.27 22.3C23.22 22.34 21.18 22.67 19.21 23.29L19.11 23.32C18.89 23.39 18.63 23.48 18.34 23.4C17.88 23.29 17.6 22.98 17.54 22.53C17.47 22.01 17.72 21.6 18.21 21.41C18.53 21.29 18.87 21.19 19.2 21.09L19.23 21.08C15.44 18.4 13.65 13.81 14.66 9.37004C15.7 4.83004 19.34 1.42004 23.94 0.680041C28.66 -0.0699593 33.47 2.34004 35.63 6.56004C35.98 7.24004 35.84 7.85004 35.28 8.15004C34.73 8.44004 34.18 8.24004 33.8 7.59004L33.72 7.45004C31.83 4.22004 28.97 2.61004 25.31 2.67004C21.14 2.74004 17.41 5.97004 16.64 10.18C15.87 14.38 18.24 18.73 22.15 20.3C22.36 20.39 22.58 20.41 22.88 20.37C24.74 20.13 26.61 20.13 28.46 20.37C28.78 20.41 29.01 20.39 29.22 20.29C32.55 18.75 34.43 16.15 34.8 12.55L34.81 12.45C34.82 12.33 34.83 12.21 34.86 12.09C35 11.51 35.42 11.22 35.99 11.27C36.57 11.33 36.92 11.73 36.91 12.32C36.89 13.57 36.62 14.82 36.11 16.04C36.05 16.19 36.05 16.23 36.05 16.24C36.07 16.24 36.23 16.3 36.28 16.31C36.91 16.52 37.47 16.47 38.19 16.13C40 15.28 42.16 14.34 44.49 13.85C44.65 13.81 44.82 13.79 44.99 13.77C46.99 13.51 47.88 14.2 48.18 16.2C48.44 17.96 48.35 19.81 47.91 22.04C47.86 22.28 47.89 22.39 48.04 22.55C49.56 24.17 50.67 26.04 51.33 28.09C51.46 28.5 51.69 28.73 52.08 28.83C52.26 28.88 52.44 28.94 52.62 29C52.85 29.08 53.07 29.15 53.31 29.21C54.96 29.59 55.97 30.48 56.41 31.94L56.4 32.01L56.39 37.07C55.96 38.49 54.95 39.39 53.29 39.81C52.73 39.95 52.17 40.14 51.63 40.32C51.29 40.43 50.96 40.55 50.62 40.65C50.34 40.73 50.16 40.88 50.01 41.12C48.46 43.74 46.23 45.83 43.2 47.51C42.94 47.66 42.83 47.8 42.78 48.07C42.45 49.92 42.08 51.82 41.76 53.5C41.51 54.77 40.7 55.45 39.4 55.45C38.8 55.46 38.2 55.46 37.6 55.46ZM32.92 50.28C33.29 50.28 33.48 50.47 33.54 50.89C33.68 51.77 33.86 52.66 34.04 53.48C34.25 54.44 34.88 54.96 35.88 54.96C37.06 54.97 38.23 54.97 39.4 54.96C40.45 54.95 41.08 54.43 41.28 53.4C41.61 51.72 41.98 49.82 42.3 47.98C42.37 47.56 42.56 47.3 42.96 47.08C45.91 45.44 48.08 43.41 49.59 40.87C49.79 40.53 50.08 40.3 50.47 40.18C50.8 40.08 51.13 39.97 51.47 39.86C52.02 39.67 52.59 39.48 53.17 39.34C54.65 38.97 55.52 38.21 55.91 36.97V32.05C55.52 30.8 54.62 30.02 53.17 29.69C52.92 29.63 52.68 29.55 52.44 29.47C52.27 29.41 52.1 29.35 51.92 29.31C51.37 29.16 51.02 28.81 50.84 28.25C50.2 26.27 49.13 24.46 47.65 22.89C47.4 22.62 47.32 22.35 47.4 21.95C47.83 19.78 47.92 17.97 47.67 16.27C47.42 14.54 46.75 14.03 45.03 14.25C44.88 14.27 44.72 14.29 44.57 14.33C42.29 14.81 40.16 15.73 38.38 16.57C37.54 16.96 36.86 17.03 36.1 16.77C35.9 16.7 35.67 16.63 35.58 16.42C35.5 16.24 35.56 16.03 35.64 15.84C36.13 14.68 36.39 13.49 36.4 12.3C36.41 11.95 36.25 11.77 35.91 11.74C35.58 11.7 35.39 11.85 35.3 12.19C35.28 12.28 35.27 12.38 35.26 12.48L35.25 12.59C34.85 16.37 32.88 19.11 29.39 20.72C29.09 20.86 28.77 20.9 28.36 20.84C26.56 20.6 24.72 20.6 22.91 20.84C22.53 20.89 22.23 20.86 21.94 20.74C17.82 19.09 15.32 14.51 16.13 10.08C16.94 5.65004 20.87 2.25004 25.27 2.17004C29.13 2.12004 32.12 3.80004 34.11 7.20004L34.19 7.34004C34.43 7.75004 34.71 7.88004 35.02 7.71004C35.35 7.53004 35.4 7.22004 35.17 6.77004C33.1 2.73004 28.5 0.420041 23.99 1.15004C19.58 1.86004 16.1 5.13004 15.1 9.47004C14.13 13.72 15.85 18.12 19.49 20.68C19.51 20.69 19.53 20.7 19.55 20.71C19.65 20.77 19.85 20.87 19.89 21.14L19.93 21.35L19.32 21.54C19 21.64 18.68 21.73 18.36 21.85C18.09 21.95 17.97 22.15 18.01 22.45C18.04 22.7 18.18 22.85 18.45 22.92C18.61 22.96 18.77 22.91 18.95 22.85L19.06 22.82C21.08 22.19 23.16 21.85 25.25 21.81C27.68 21.78 30.1 22.13 32.42 22.88C32.66 22.96 32.87 22.96 33.02 22.88C33.14 22.82 33.22 22.71 33.26 22.57C33.3 22.44 33.42 22.04 32.76 21.81C32.49 21.72 32.22 21.63 31.93 21.54L30.99 21.24L31.41 20.96C32.56 20.18 33.45 19.48 34.06 18.54C34.54 17.8 35.09 17.61 35.97 17.88C36.48 18.03 36.64 18.3 36.53 18.8C36.37 19.5 36.31 20.27 36.33 21.22C36.42 24.79 38.98 27.29 42.55 27.3C42.56 27.3 42.57 27.3 42.58 27.3C44.58 27.3 45.89 26.46 46.57 24.73C46.58 24.7 46.59 24.66 46.61 24.63C46.66 24.48 46.72 24.3 46.9 24.16L47.01 24.08L47.13 24.13C47.35 24.21 47.47 24.38 47.55 24.5C47.57 24.53 47.59 24.56 47.61 24.59C48.59 25.83 49.32 27.2 49.78 28.66C50.07 29.55 50.64 30.12 51.54 30.39C52.2 30.59 52.85 30.8 53.51 31.02C54.39 31.32 54.77 31.85 54.78 32.79C54.79 33.91 54.78 35.03 54.78 36.15C54.78 37.25 54.41 37.76 53.37 38.1C52.3 38.44 51.24 38.79 50.17 39.12C49.48 39.33 49.02 39.66 48.73 40.17C47.24 42.72 45.06 44.73 42.07 46.32C41.61 46.57 41.37 46.89 41.28 47.39C41.1 48.4 40.91 49.4 40.72 50.41C40.55 51.28 40.39 52.16 40.23 53.03C40.16 53.43 39.98 53.89 39.24 53.87C38.31 53.84 37.3 53.84 36.06 53.87C35.5 53.88 35.18 53.64 35.09 53.07C34.94 52.16 34.76 51.24 34.59 50.34L34.54 50.09C34.4 49.36 33.95 49.01 33.28 49.1C30.5 49.5 27.65 49.57 24.79 49.3C23.82 49.21 23.51 49.46 23.32 50.48C23.26 50.84 23.19 51.19 23.12 51.55C23.02 52.06 22.92 52.57 22.84 53.08C22.75 53.62 22.46 53.87 21.91 53.86C20.81 53.84 19.72 53.84 18.67 53.86C18.11 53.84 17.82 53.62 17.72 53.05C17.6 52.38 17.47 51.7 17.33 51.03C17.14 50.09 16.95 49.12 16.79 48.15C16.66 47.35 16.31 46.85 15.59 46.44C12.17 44.52 9.88001 41.72 8.80001 38.12C7.98001 35.39 7.87001 32.5 8.49001 29.53C9.32001 25.5 11.6 22.33 15.27 20.12C15.92 19.73 15.71 19.36 15.64 19.24C15.56 19.11 15.46 19.03 15.34 19C15.17 18.95 14.94 19.01 14.71 19.15C10.6 21.62 8.10001 25.23 7.29001 29.89L7.28001 29.96C7.26001 30.11 7.23001 30.37 6.96001 30.51L6.80001 30.58L6.68001 30.49C6.45001 30.32 6.46001 30.1 6.46001 29.97C6.46001 29.95 6.46001 29.93 6.46001 29.9C6.32001 28.71 5.83001 27.83 4.98001 27.21C4.44001 26.82 3.87001 26.67 3.32001 26.78C2.75001 26.89 2.25001 27.26 1.88001 27.86C1.54001 28.4 1.43001 28.91 1.56001 29.39C1.70001 29.9 2.11001 30.36 2.77001 30.71C3.17001 30.92 3.62001 31.09 4.18001 31.23L4.27001 31.25C4.40001 31.28 4.59001 31.32 4.75001 31.48L4.89001 31.62L4.75001 31.84C4.72001 31.89 4.69001 31.94 4.65001 31.99C3.84001 33 2.78001 33.57 1.51001 33.67C1.10001 33.7 0.870008 33.93 0.880008 34.28C0.890008 34.62 1.14001 34.84 1.55001 34.86C1.65001 34.87 1.75001 34.86 1.84001 34.85C3.49001 34.71 4.80001 33.83 5.94001 32.09L6.00001 32C6.08001 31.86 6.24001 31.57 6.64001 31.66C6.96001 31.73 7.08001 31.95 7.00001 32.31C6.99001 32.34 6.99001 32.37 6.98001 32.39C6.93001 34 7.04001 35.48 7.33001 36.92C8.26001 41.48 10.85 45.01 15.02 47.43C15.4 47.65 15.59 47.92 15.66 48.34C15.86 49.44 16.07 50.54 16.28 51.65C16.39 52.2 16.49 52.74 16.6 53.29C16.82 54.45 17.44 54.97 18.61 54.98C19.73 54.98 20.85 54.98 21.97 54.98C23.1 54.98 23.72 54.45 23.93 53.31L24.07 52.56C24.17 52.05 24.27 51.54 24.35 51.02C24.42 50.57 24.68 50.37 25.12 50.43C25.59 50.49 26.06 50.52 26.51 50.54C28.62 50.64 30.72 50.56 32.74 50.3C32.81 50.29 32.87 50.28 32.92 50.28ZM4.94001 30.23C4.87001 30.23 4.80001 30.22 4.76001 30.21C4.13001 30.07 3.61001 29.92 3.12001 29.62C2.87001 29.47 2.72001 29.29 2.67001 29.09C2.63001 28.91 2.67001 28.72 2.80001 28.53C3.01001 28.2 3.32001 27.73 3.98001 27.96C4.60001 28.18 5.24001 29.07 5.29001 29.76C5.32001 29.92 5.29001 30.05 5.20001 30.14C5.13001 30.21 5.03001 30.23 4.94001 30.23ZM3.66001 28.38C3.50001 28.38 3.39001 28.51 3.21001 28.79C3.17001 28.85 3.13001 28.93 3.14001 28.99C3.15001 29.03 3.20001 29.11 3.36001 29.21C3.77001 29.46 4.23001 29.6 4.79001 29.73C4.72001 29.24 4.23001 28.57 3.81001 28.42C3.76001 28.39 3.71001 28.38 3.66001 28.38ZM42.83 26.16C42.4 26.16 41.91 26.11 41.34 26C39.15 25.59 37.71 23.96 37.5 21.63C37.41 20.67 37.48 19.68 37.69 18.7C37.79 18.26 38.02 17.95 38.39 17.79C40.59 16.8 42.81 15.81 45.2 15.35C46.1 15.18 46.35 15.35 46.54 16.27C46.66 16.85 46.67 17.43 46.68 17.98V18.22C46.65 20.19 46.36 21.93 45.81 23.55C45.22 25.27 44.58 26.16 42.83 26.16ZM45.71 15.77C45.61 15.77 45.48 15.8 45.29 15.83C42.96 16.27 40.77 17.26 38.64 18.21C38.36 18.34 38.23 18.52 38.16 18.81C37.95 19.74 37.89 20.67 37.97 21.59C38.16 23.69 39.45 25.16 41.42 25.53C44.14 26.04 44.71 25.27 45.34 23.4C45.88 21.83 46.15 20.14 46.18 18.23V18.01C46.17 17.48 46.16 16.93 46.05 16.39C45.96 15.91 45.93 15.77 45.71 15.77Z" fill="#2090FF"/>
<path d="M25.59 13.6203C25.85 12.7003 25.5 12.0103 24.31 11.5903C23.22 11.2103 22.78 10.2003 22.9 9.10026C23.02 7.96026 23.71 7.18026 24.87 6.86026C25.23 6.76026 25.67 6.80026 25.65 6.22026C25.64 6.07026 25.85 5.98026 26.03 5.99026C26.25 6.01026 26.44 6.12026 26.43 6.35026C26.41 6.70026 26.62 6.72026 26.87 6.73026C27.36 6.76026 27.84 6.87026 28.27 7.09026C28.74 7.33026 28.87 7.69026 28.67 8.11026C28.48 8.52026 28.2 8.59026 27.68 8.36026C26.44 7.80026 26.44 7.80026 26.44 9.13026C26.44 9.17026 26.44 9.20026 26.44 9.24026C26.29 10.2903 26.48 11.0403 27.65 11.5103C28.82 11.9703 29.13 13.1203 29 14.3303C28.86 15.5903 28.17 16.4203 26.93 16.7403C26.61 16.8203 26.36 16.8903 26.42 17.3203C26.45 17.5503 26.22 17.6503 26.01 17.6603C25.79 17.6603 25.58 17.5503 25.61 17.3203C25.65 16.8703 25.36 16.8903 25.07 16.8603C24.3 16.7703 23.6 16.5203 23.03 15.9703C22.8 15.7503 22.63 15.5003 22.66 15.1603C22.69 14.8703 22.82 14.6403 23.07 14.4903C23.33 14.3403 23.56 14.4803 23.76 14.6503C24.2 15.0303 24.67 15.3503 25.26 15.4703C25.52 15.5203 25.62 15.4803 25.61 15.2003C25.58 14.7403 25.59 14.2903 25.59 13.6203ZM26.35 12.5103C26.35 13.3903 26.37 14.2003 26.34 15.0103C26.32 15.5403 26.56 15.4703 26.88 15.3103C27.38 15.0603 27.65 14.5603 27.6 13.9703C27.54 13.2203 27.1 12.7903 26.35 12.5103ZM25.68 9.33026C25.68 9.01026 25.67 8.68026 25.68 8.36026C25.7 8.07026 25.59 8.03026 25.33 8.10026C24.69 8.26026 24.3 8.69026 24.31 9.26026C24.32 9.83026 24.87 10.4303 25.45 10.5503C25.69 10.6003 25.68 10.4703 25.68 10.3103C25.68 9.98026 25.68 9.66026 25.68 9.33026Z" fill="#2E97FF"/>
<path d="M25.99 17.8901C25.79 17.8901 25.61 17.8201 25.5 17.7001C25.4 17.5901 25.35 17.4401 25.36 17.2901C25.38 17.1201 25.38 17.1201 25.12 17.1001L25.03 17.0901C24.12 16.9901 23.41 16.6801 22.84 16.1401C22.63 15.9401 22.35 15.6101 22.39 15.1401C22.42 14.7701 22.61 14.4601 22.92 14.2901C23.37 14.0301 23.74 14.3501 23.88 14.4701C24.27 14.8001 24.71 15.1301 25.27 15.2401C25.29 15.2401 25.32 15.2501 25.33 15.2501C25.33 15.2401 25.33 15.2301 25.33 15.2101C25.32 14.9001 25.32 14.5901 25.32 14.2101L25.33 13.5601C25.49 13.0001 25.51 12.2901 24.2 11.8301C23.09 11.4401 22.48 10.3901 22.63 9.09015C22.76 7.85015 23.53 6.98015 24.78 6.65015C24.85 6.63015 24.92 6.62015 24.99 6.60015C25.31 6.54015 25.39 6.51015 25.38 6.25015C25.38 6.13015 25.42 6.02015 25.51 5.93015C25.63 5.81015 25.83 5.75015 26.02 5.77015C26.41 5.80015 26.66 6.04015 26.64 6.38015C26.64 6.46015 26.65 6.48015 26.65 6.48015C26.67 6.49015 26.79 6.50015 26.85 6.50015C27.4 6.53015 27.9 6.66015 28.35 6.89015C28.93 7.18015 29.12 7.68015 28.86 8.23015C28.53 8.94015 27.95 8.78015 27.55 8.60015C27.15 8.42015 26.77 8.25015 26.68 8.27015C26.66 8.33015 26.66 8.73015 26.66 9.14015C26.66 9.20015 26.66 9.24015 26.66 9.28015C26.52 10.2301 26.65 10.8601 27.72 11.2901C28.86 11.7401 29.39 12.8301 29.22 14.3601C29.07 15.7301 28.29 16.6401 26.97 16.9801C26.63 17.0701 26.61 17.0901 26.63 17.2901C26.65 17.4401 26.61 17.5701 26.52 17.6801C26.41 17.8101 26.21 17.8901 25.99 17.9001C26.01 17.8901 26 17.8901 25.99 17.8901ZM23.28 14.6601C23.24 14.6601 23.21 14.6701 23.17 14.6901C23 14.7901 22.9 14.9501 22.88 15.1701C22.86 15.3801 22.95 15.5601 23.18 15.7801C23.66 16.2401 24.29 16.5101 25.08 16.6001L25.16 16.6101C25.4 16.6301 25.9 16.6801 25.84 17.3301C25.87 17.3901 25.92 17.4001 26 17.4001C26.11 17.4001 26.17 17.3601 26.18 17.3501C26.1 16.7001 26.56 16.5801 26.87 16.5001C28 16.2101 28.64 15.4601 28.76 14.3001C28.86 13.3901 28.73 12.2001 27.56 11.7401C26.12 11.1701 26.06 10.1401 26.19 9.21015V9.14015C26.19 8.37015 26.19 8.02015 26.45 7.85015C26.71 7.68015 27.05 7.83015 27.77 8.15015C28.25 8.37015 28.34 8.24015 28.44 8.02015C28.54 7.81015 28.59 7.54015 28.15 7.32015C27.76 7.12015 27.32 7.01015 26.84 6.99015C26.61 6.98015 26.14 6.95015 26.17 6.35015C26.17 6.28015 26.08 6.25015 25.99 6.25015C25.93 6.24015 25.87 6.27015 25.85 6.28015C25.91 6.90015 25.41 7.00015 25.11 7.06015C25.05 7.07015 24.99 7.08015 24.93 7.10015C23.87 7.38015 23.25 8.08015 23.14 9.13015C23.02 10.2101 23.49 11.0501 24.39 11.3601C25.64 11.8001 26.12 12.5701 25.83 13.6501V14.2101C25.83 14.5801 25.83 14.8801 25.84 15.1901C25.84 15.3201 25.83 15.5201 25.69 15.6401C25.55 15.7601 25.36 15.7401 25.2 15.7101C24.53 15.5801 24.01 15.1901 23.59 14.8401C23.44 14.7101 23.36 14.6601 23.28 14.6601ZM26.53 15.6701C26.45 15.6701 26.38 15.6501 26.31 15.6101C26.1 15.4801 26.09 15.2001 26.1 15.0001C26.12 14.4401 26.12 13.8801 26.11 13.3001C26.11 13.0401 26.11 12.7801 26.11 12.5101V12.1601L26.44 12.2801C27.34 12.6101 27.79 13.1401 27.85 13.9501C27.9 14.6401 27.59 15.2201 27 15.5201C26.87 15.5801 26.7 15.6701 26.53 15.6701ZM26.59 12.8801C26.59 13.0201 26.59 13.1601 26.59 13.2901C26.59 13.8801 26.6 14.4501 26.58 15.0101C26.58 15.0801 26.58 15.1301 26.58 15.1601C26.62 15.1501 26.67 15.1201 26.76 15.0801C27.17 14.8701 27.39 14.4601 27.35 13.9801C27.32 13.4801 27.08 13.1301 26.59 12.8801ZM25.54 10.8001C25.48 10.8001 25.43 10.7901 25.41 10.7801C24.71 10.6401 24.08 9.92015 24.07 9.26015C24.06 8.58015 24.51 8.06015 25.27 7.86015C25.44 7.82015 25.63 7.79015 25.77 7.91015C25.92 8.03015 25.93 8.23015 25.92 8.37015C25.91 8.59015 25.91 8.81015 25.91 9.03015V10.3001C25.91 10.4301 25.91 10.6001 25.78 10.7101C25.71 10.7801 25.62 10.8001 25.54 10.8001ZM25.45 8.32015C25.44 8.32015 25.42 8.33015 25.4 8.33015C24.86 8.47015 24.56 8.80015 24.56 9.25015C24.57 9.67015 24.99 10.1601 25.44 10.2901V9.04015C25.44 8.81015 25.43 8.58015 25.45 8.35015C25.45 8.34015 25.45 8.33015 25.45 8.32015Z" fill="#2E97FF"/>
<path d="M44.65 33.0201C43.28 33.0301 42.16 32.0401 41.99 30.6601C41.92 30.0901 42.19 29.6701 42.66 29.6001C43.16 29.5301 43.49 29.8101 43.59 30.4101C43.69 31.0301 44.07 31.4001 44.62 31.4001C45.17 31.4001 45.54 31.0401 45.64 30.4201C45.74 29.8301 46.07 29.5401 46.57 29.6101C47.05 29.6701 47.31 30.0801 47.25 30.6601C47.11 32.0001 45.99 33.0101 44.65 33.0201Z" fill="#2E97FF"/>
<path d="M44.62 33.2701C43.14 33.2701 41.93 32.1901 41.75 30.7001C41.66 29.9901 42.02 29.4601 42.63 29.3701C43.27 29.2901 43.71 29.6501 43.83 30.3801C43.88 30.6701 44.05 31.1601 44.62 31.1601C45.19 31.1601 45.36 30.6701 45.4 30.3801C45.52 29.6601 45.97 29.2801 46.6 29.3601C47.21 29.4401 47.56 29.9701 47.49 30.6801C47.33 32.1401 46.11 33.2401 44.65 33.2601C44.64 33.2701 44.63 33.2701 44.62 33.2701ZM42.81 29.8401C42.77 29.8401 42.73 29.8401 42.7 29.8501C42.29 29.9101 42.19 30.2901 42.24 30.6301C42.4 31.8801 43.43 32.7801 44.65 32.7701C45.87 32.7601 46.88 31.8401 47.01 30.6301C47.06 30.1801 46.88 29.8901 46.54 29.8401C46.4 29.8201 45.99 29.7701 45.88 30.4501C45.76 31.2001 45.29 31.6401 44.62 31.6401C43.95 31.6401 43.48 31.1901 43.35 30.4501C43.26 29.9501 43.02 29.8401 42.81 29.8401Z" fill="#2E97FF"/>
</g>
<defs>
<clipPath id="clip0_604_12958">
<rect width="56" height="56" fill="white" transform="translate(0.400009)"/>
</clipPath>
</defs>
</svg>
