<svg width="101" height="27" viewBox="0 0 101 27" fill="none" xmlns="http://www.w3.org/2000/svg">
<g clip-path="url(#clip0_507_5342)">
<path d="M15.8547 11.6865V17.6807C15.8547 20.6015 13.4661 22.9699 10.519 22.9699C7.57246 22.9699 5.1832 20.6021 5.1832 17.6807V0H0V17.8941C0 22.9232 4.11269 27 9.18599 27H11.8513C16.9246 27 21.0373 22.9232 21.0373 17.8941V16.8002C21.0373 13.9761 18.7275 11.6865 15.8786 11.6865H15.8547Z" fill="#0080FF"/>
<path d="M20.6658 0H7.92694V17.6807C7.92694 19.0994 9.08731 20.2497 10.5185 20.2497C11.9498 20.2497 13.1101 19.0994 13.1101 17.6807V4.03007H18.3748C21.3607 4.03007 23.7817 6.42991 23.7817 9.38983V18.6368C23.7817 21.5601 21.5702 24.9898 19.7582 26.6065C25.8917 25.2916 29.1678 20.8245 29.1678 15.5147V8.42797C29.1678 3.77375 25.3609 0 20.6658 0Z" fill="#FFC200"/>
<path d="M17.7344 10.7796C19.1657 10.7796 20.326 9.62945 20.326 8.21062C20.326 6.79179 19.1657 5.6416 17.7344 5.6416C16.3031 5.6416 15.1428 6.79179 15.1428 8.21062C15.1428 9.62945 16.3031 10.7796 17.7344 10.7796Z" fill="#0080FF"/>
<path d="M37.1871 15.8454C37.1871 17.2725 37.4567 18.4811 37.9952 19.4724C38.5337 20.4637 39.3075 21.2154 40.3159 21.7281C41.3244 22.2407 42.5397 22.497 43.9619 22.497C45.3666 22.497 46.5735 22.2407 47.582 21.7281C48.5904 21.2154 49.3681 20.4637 49.9156 19.4724C50.4632 18.4817 50.7366 17.2725 50.7366 15.8454V4.68309L50.5556 4.50366H49.2627C48.5904 4.50366 48.0881 4.67668 47.7565 5.02272C47.4249 5.36876 47.2588 5.92178 47.2588 6.68243V15.8582C47.2588 17.1398 46.9918 18.1094 46.4572 18.7675C45.9226 19.4256 45.0867 19.7544 43.949 19.7544C42.8112 19.7544 41.9773 19.4256 41.4472 18.7675C40.9171 18.1094 40.6521 17.1398 40.6521 15.8582V4.64464C40.376 4.59338 40.0851 4.56134 39.7794 4.54852C39.4736 4.5357 39.1995 4.52929 38.9584 4.52929C38.7341 4.52929 38.4503 4.5357 38.1051 4.54852C37.7605 4.56134 37.4541 4.59338 37.1871 4.64464V15.8454Z" fill="#0080FF"/>
<path d="M54.7957 4.683C55.071 4.63173 55.4227 4.59328 55.8494 4.56765C56.276 4.54202 56.6102 4.5292 56.8514 4.5292C57.0925 4.5292 57.4028 4.53561 57.7822 4.54843C58.1617 4.56124 58.5276 4.59328 58.8812 4.64455L58.002 8.57914L57.7564 8.65604C57.8081 9.32248 57.8533 10.0677 57.8921 10.8925C57.9309 11.7172 57.9632 12.5458 57.9891 13.3788C58.015 14.2119 58.0279 14.9661 58.0279 15.6409V22.1516C57.7434 22.2028 57.4629 22.2349 57.1875 22.2477C56.9115 22.2605 56.6619 22.2669 56.4376 22.2669C56.2308 22.2669 55.9741 22.2605 55.6684 22.2477C55.3626 22.2349 55.0717 22.2028 54.7957 22.1516V4.683ZM59.3977 12.2183C59.0958 11.5692 58.814 10.9367 58.5509 10.3215C58.2878 9.70633 58.0531 9.13793 57.8462 8.61695L56.2301 6.74577L58.8805 4.64391L63.586 14.563C63.9138 15.2724 64.2195 15.9581 64.504 16.6201C64.7884 17.282 65.0379 17.8652 65.2538 18.3695L66.9993 20.215L64.1678 22.1503L59.3977 12.2183ZM68.2928 4.65737V22.1125C68.1118 22.1464 67.8901 22.1765 67.6269 22.2022C67.3638 22.2278 67.1053 22.2451 66.8512 22.2534C66.5965 22.2618 66.3832 22.2663 66.2112 22.2663C65.9443 22.2663 65.6294 22.2598 65.2674 22.247C64.9054 22.2342 64.5389 22.2022 64.1685 22.1509L65.0864 18.3957L65.3579 18.3317C65.2972 17.5883 65.2461 16.7854 65.2028 15.9222C65.1595 15.059 65.1297 14.2221 65.1123 13.4102C65.0948 12.599 65.0864 11.8979 65.0864 11.3084V6.6048C65.0864 5.84415 65.2351 5.30395 65.5325 4.98354C65.8298 4.66313 66.3185 4.50293 66.9999 4.50293H68.1118L68.2928 4.65737Z" fill="#0080FF"/>
<path d="M72.6495 4.64464C72.9081 4.59338 73.2029 4.56134 73.5352 4.54852C73.8668 4.53571 74.1448 4.5293 74.3691 4.5293C74.6193 4.5293 74.9011 4.53571 75.2159 4.54852C75.5301 4.56134 75.8301 4.59338 76.1145 4.64464V22.151C75.8301 22.2023 75.5301 22.2343 75.2159 22.2471C74.9011 22.2599 74.6193 22.2664 74.3691 22.2664C74.1448 22.2664 73.8668 22.2599 73.5352 22.2471C73.2029 22.2343 72.9081 22.2023 72.6495 22.151V4.64464Z" fill="#0080FF"/>
<path d="M94.1992 13.3975C94.1992 14.3972 94.1301 15.3565 93.9924 16.2748C93.854 17.193 93.5851 18.0498 93.1843 18.8444C92.7835 19.639 92.1778 20.3522 91.3678 20.9847C90.9799 21.2923 90.5145 21.5422 89.9715 21.7345C89.4285 21.9267 88.8725 22.0677 88.3037 22.1574C87.7348 22.2471 87.2131 22.292 86.7393 22.292C86.0237 22.292 85.3429 22.2875 84.6965 22.2792C84.05 22.2708 83.3991 22.258 82.7442 22.2407C82.0894 22.2234 81.3867 22.2068 80.6368 22.1895L80.4558 22.01V4.78562L80.6368 4.60619C81.3783 4.58056 82.0758 4.56134 82.7313 4.54852C83.3862 4.53571 84.0391 4.5293 84.69 4.5293C85.341 4.5293 86.0237 4.5293 86.7393 4.5293C87.2131 4.5293 87.7367 4.57223 88.3101 4.65746C88.8829 4.74269 89.4414 4.87982 89.9844 5.06758C90.5274 5.25534 90.9884 5.50333 91.3678 5.81092C92.1694 6.4434 92.7706 7.15855 93.1714 7.95764C93.5722 8.75674 93.8437 9.61543 93.9859 10.5337C94.1288 11.452 94.1992 12.4062 94.1992 13.3975ZM90.6186 13.3975C90.6186 12.6888 90.5714 11.9711 90.4764 11.2444C90.3813 10.5183 90.2029 9.85381 89.9398 9.25145C89.6767 8.64908 89.2888 8.16206 88.7762 7.79039C88.2636 7.41872 87.5848 7.23289 86.7399 7.23289C86.2486 7.23289 85.7851 7.2284 85.3501 7.22007C84.915 7.21174 84.4386 7.20725 83.9214 7.20725V19.5743C84.4386 19.566 84.915 19.5634 85.3501 19.5679C85.7851 19.5724 86.2486 19.5743 86.7399 19.5743C87.5842 19.5743 88.2636 19.3885 88.7762 19.0168C89.2888 18.6451 89.6767 18.1536 89.9398 17.5429C90.2029 16.9322 90.3813 16.2639 90.4764 15.5372C90.5707 14.8118 90.6186 14.0979 90.6186 13.3975Z" fill="#0080FF"/>
<path d="M97.5349 4.64464C97.7934 4.59338 98.0882 4.56134 98.4205 4.54852C98.7521 4.53571 99.0301 4.5293 99.2544 4.5293C99.5046 4.5293 99.7864 4.53571 100.101 4.54852C100.415 4.56134 100.715 4.59338 101 4.64464V22.151C100.715 22.2023 100.415 22.2343 100.101 22.2471C99.7864 22.2599 99.5046 22.2664 99.2544 22.2664C99.0301 22.2664 98.7521 22.2599 98.4205 22.2471C98.0882 22.2343 97.7934 22.2023 97.5349 22.151V4.64464Z" fill="#0080FF"/>
</g>
<defs>
<clipPath id="clip0_507_5342">
<rect width="101" height="27" fill="white"/>
</clipPath>
</defs>
</svg>
