<svg width="302" height="110" viewBox="0 0 302 110" fill="none" xmlns="http://www.w3.org/2000/svg">
<circle cx="54" cy="56" r="45" fill="#FFC200" stroke="#0080FF" stroke-width="18"/>
<circle cx="55" cy="57" r="19" fill="#0080FF"/>
<rect x="58.0742" y="72.2839" width="16" height="53.6695" transform="rotate(-47.371 58.0742 72.2839)" fill="#0080FF"/>
<path d="M167.317 25.9091H183.616V75.973C183.616 81.5942 182.274 86.5128 179.589 90.7287C176.929 94.9446 173.202 98.232 168.409 100.591C163.616 102.925 158.032 104.092 151.658 104.092C145.259 104.092 139.663 102.925 134.87 100.591C130.077 98.232 126.35 94.9446 123.69 90.7287C121.03 86.5128 119.7 81.5942 119.7 75.973V25.9091H135.999V74.5803C135.999 77.5163 136.639 80.1262 137.919 82.4098C139.224 84.6934 141.056 86.4877 143.415 87.7926C145.774 89.0975 148.522 89.75 151.658 89.75C154.82 89.75 157.568 89.0975 159.902 87.7926C162.261 86.4877 164.08 84.6934 165.36 82.4098C166.665 80.1262 167.317 77.5163 167.317 74.5803V25.9091ZM211.735 25.9091V103H195.436V25.9091H211.735ZM288.036 25.9091V103H273.958L240.419 54.4794H239.854V103H223.555V25.9091H237.859L271.135 74.392H271.813V25.9091H288.036Z" fill="#0080FF"/>
</svg>
