<svg width="57" height="56" viewBox="0 0 57 56" fill="none" xmlns="http://www.w3.org/2000/svg">
<g clip-path="url(#clip0_604_12945)">
<path d="M16.85 43.69C14.81 43.69 13.13 42.4501 12.45 40.4701C12.36 40.2001 12.28 40.17 12.03 40.17C11.5 40.18 11 40.18 10.5 40.18C10 40.18 9.5 40.18 9 40.17C8.52 40.17 8.13 40.02 7.89 39.76C7.71 39.56 7.63 39.3101 7.66 39.0201C7.73 38.34 8.17 38 8.95 38C9.24 38 9.49 38.01 9.73 38.01H11.04C11.36 38.01 11.67 38.01 11.99 38.0201C11.99 38.0201 11.99 38.0201 12 38.0201C12.32 38.0201 12.39 37.9701 12.44 37.7401C12.58 37.1001 12.92 36.58 13.37 36.03H11.03C10.34 36.03 8.97 36.03 8.96 36.03C8.68 36.03 7.93 36.02 7.71 35.21C7.63 34.92 7.68 34.6101 7.84 34.3601C8.01 34.1101 8.28 33.93 8.59 33.89C8.72 33.87 8.84 33.87 8.97 33.87L9.39 33.8801H20.59C26.5 33.8801 32.4 33.88 38.31 33.89C38.49 33.89 38.7 33.8801 38.77 33.8101C38.82 33.7601 38.85 33.62 38.85 33.39C38.82 27.39 38.82 21.19 38.85 14.97C38.85 14.74 38.82 14.6 38.77 14.55C38.7 14.48 38.49 14.47 38.33 14.47C33.71 14.48 29.11 14.48 24.5 14.48C19.77 14.48 15.04 14.48 10.3 14.47C10.06 14.47 9.92 14.5 9.86 14.55C9.83 14.57 9.79 14.67 9.8 14.91C9.83 15.59 9.83 16.26 9.82 16.94C9.82 17.31 9.81 17.68 9.82 18.05C9.83 19.07 9.18 19.28 8.79 19.31H8.78C8.08 19.31 7.66 18.8 7.66 18.03C7.65 16.55 7.65 15.06 7.66 13.58C7.67 12.68 8.06 12.3 8.98 12.3H39.7C40.64 12.3 41.01 12.7 41.01 13.74V14.59C41.02 16.44 41.02 18.29 40.99 20.14C40.99 20.3 40.99 20.51 41.07 20.59C41.12 20.64 41.25 20.67 41.46 20.67C42.44 20.66 43.38 20.65 44.31 20.65H47.12C48.07 20.65 49.02 20.65 49.97 20.63C51.32 20.63 52.2 21.18 52.74 22.31C54.02 24.98 55.31 27.65 56.6 30.32C56.74 30.6 56.8 30.88 56.8 31.24V38.82C56.8 39.8 56.42 40.17 55.41 40.17C54.84 40.17 54.27 40.18 53.71 40.18C53.14 40.18 52.57 40.18 52 40.17C51.76 40.17 51.69 40.2 51.6 40.46C50.9 42.48 49.25 43.6901 47.2 43.7001C45.16 43.7001 43.52 42.49 42.8 40.46C42.72 40.22 42.65 40.18 42.39 40.18C39.1 40.18 35.8 40.19 32.51 40.19C28.9 40.19 25.29 40.1901 21.68 40.18C21.4 40.18 21.34 40.23 21.24 40.51C20.57 42.47 18.9 43.7 16.87 43.71H16.85V43.69ZM16.85 36.6101C16.21 36.6101 15.58 36.88 15.11 37.35C14.64 37.83 14.38 38.4401 14.38 39.0801C14.39 40.4301 15.49 41.5201 16.84 41.5201C18.19 41.5201 19.3 40.43 19.3 39.09C19.31 37.74 18.22 36.62 16.88 36.6L16.84 36.35V36.6101H16.85ZM47.19 36.6101C45.88 36.6101 44.76 37.73 44.74 39.05C44.72 40.39 45.81 41.5 47.16 41.5201C48.54 41.5201 49.62 40.4701 49.65 39.1301C49.66 38.4601 49.41 37.83 48.95 37.35C48.49 36.87 47.87 36.61 47.21 36.6L47.19 36.35V36.6101ZM41.37 22.81C41.15 22.81 41.08 22.85 41.05 22.87C41.01 22.91 40.99 23.03 40.99 23.23C41.01 24.96 41 26.6901 41 28.43V36.64C41 38.02 41 38.0201 41.77 38.0201C41.94 38.0201 42.14 38.01 42.37 38.01C42.64 38 42.69 37.96 42.77 37.75C43.53 35.65 45.14 34.4401 47.19 34.43C49.22 34.43 50.86 35.67 51.61 37.75C51.69 37.99 51.74 38 51.89 38C52.26 38 52.61 38 52.96 38H54.57C54.61 37.85 54.62 37.68 54.63 37.5C54.66 36.98 54.69 36.4401 54.54 35.9901C54.53 35.9901 54.48 35.9701 54.37 35.9701C54.26 35.9701 54.13 35.98 54 36C53.85 36.01 53.7 36.03 53.56 36.03C53.5 36.03 53.45 36.0301 53.39 36.0201C52.62 35.98 52.21 35.58 52.23 34.91C52.24 34.49 52.43 33.9601 53.3 33.8601C53.35 33.85 53.4 33.85 53.46 33.85C53.61 33.85 53.76 33.87 53.92 33.89C54.05 33.91 54.18 33.93 54.3 33.93C54.51 33.93 54.57 33.8701 54.6 33.8101C54.72 33.6001 54.7 33.2601 54.67 32.9001C54.65 32.6901 54.64 32.48 54.65 32.28C54.66 32.14 54.63 32.1101 54.63 32.1101C54.63 32.1101 54.6 32.0801 54.45 32.0801C54.15 32.0901 53.89 32.09 53.64 32.09H52.46H49.64C48.89 32.09 48.14 32.0901 47.38 32.0801C46.91 32.0801 46.52 31.9 46.3 31.59C46.11 31.32 46.07 31 46.19 30.67C46.42 30.01 47 29.93 47.41 29.93C48.49 29.93 53.82 29.93 53.82 29.93L53.94 30.18V29.93C53.97 29.93 54 29.93 54.02 29.93C54.01 29.9 53.99 29.87 53.97 29.82C52.9 27.64 51.84 25.45 50.8 23.26C50.65 22.94 50.47 22.83 50.12 22.83C48.63 22.84 47.16 22.85 45.68 22.85C44.26 22.85 42.84 22.84 41.42 22.83L41.4 22.58V22.81H41.37ZM20.33 36.03C20.73 36.51 21.07 36.9901 21.21 37.5801C21.29 37.9301 21.41 38.01 21.83 38.01C24.74 38 27.65 38 30.55 38H37.32C38.82 38 38.82 38 38.84 36.5401C38.85 36.2101 38.81 36.1201 38.77 36.0801C38.71 36.0201 38.51 36.01 38.36 36.01C35.36 36.02 32.37 36.0201 29.39 36.0201L20.33 36.03Z" fill="#2090FF"/>
<path d="M13.9 35.78C12.15 35.78 10.56 35.77 8.96 35.78C8.47 35.78 8.08 35.66 7.94 35.14C7.81 34.67 8.12 34.2 8.63 34.12C8.88 34.08 9.14 34.1 9.39 34.1C19.03 34.1 28.67 34.09 38.31 34.1101C38.89 34.1101 39.1 34.01 39.09 33.37C39.06 27.23 39.06 21.09 39.09 14.95C39.09 14.32 38.91 14.19 38.31 14.2C28.97 14.22 19.64 14.22 10.3 14.2C9.74 14.2 9.53 14.32 9.56 14.92C9.61 15.96 9.57 17 9.58 18.05C9.58 18.61 9.38 19.01 8.77 19.06C8.26 19.1 7.91 18.68 7.91 18.03C7.9 16.55 7.9 15.06 7.91 13.58C7.92 12.82 8.2 12.55 8.98 12.55C19.22 12.55 29.46 12.55 39.7 12.55C40.51 12.55 40.76 12.84 40.76 13.74C40.77 15.87 40.78 18 40.74 20.14C40.73 20.73 40.86 20.93 41.5 20.92C44.33 20.88 47.15 20.93 49.98 20.89C51.19 20.87 52.01 21.35 52.53 22.43C53.81 25.1 55.1 27.77 56.39 30.44C56.52 30.7 56.55 30.96 56.55 31.25C56.55 33.7801 56.55 36.3001 56.55 38.8301C56.55 39.6701 56.28 39.93 55.41 39.94C54.28 39.95 53.14 39.95 52 39.94C51.65 39.93 51.49 40.03 51.36 40.39C50.68 42.33 49.13 43.46 47.19 43.46C45.25 43.46 43.71 42.34 43.02 40.39C42.9 40.04 42.73 39.94 42.38 39.94C35.48 39.95 28.57 39.95 21.67 39.94C21.28 39.94 21.12 40.07 21 40.44C20.37 42.31 18.77 43.4601 16.87 43.4701C14.93 43.4801 13.35 42.34 12.69 40.41C12.56 40.0201 12.37 39.93 12 39.94C11 39.96 10.01 39.9501 9.01 39.9501C8.3 39.9401 7.86 39.6 7.91 39.07C7.97 38.43 8.41 38.26 9 38.2701C10 38.2901 10.99 38.26 11.99 38.28C12.37 38.29 12.59 38.2101 12.68 37.8101C12.85 37.0501 13.31 36.46 13.9 35.78ZM40.76 30.39C40.76 32.47 40.76 34.56 40.76 36.64C40.76 38.31 40.76 38.3 42.41 38.25C42.73 38.24 42.89 38.1501 43.01 37.8301C43.74 35.8201 45.27 34.6901 47.2 34.68C49.11 34.67 50.66 35.83 51.39 37.84C51.49 38.1201 51.61 38.26 51.92 38.25C52.75 38.23 53.59 38.2501 54.42 38.2401C54.6 38.2401 54.85 38.29 54.86 38.03C54.88 37.32 55 36.5501 54.78 35.9001C54.66 35.5601 53.89 35.82 53.42 35.7701C53.4 35.7701 53.37 35.7701 53.35 35.7701C52.8 35.74 52.47 35.48 52.48 34.91C52.49 34.38 52.82 34.15 53.33 34.1C53.84 34.04 54.55 34.39 54.81 33.92C55.05 33.5 54.86 32.84 54.89 32.28C54.91 31.9 54.74 31.81 54.4 31.82C53.75 31.84 53.1 31.82 52.45 31.82C50.76 31.82 49.07 31.83 47.38 31.81C46.64 31.8 46.22 31.3 46.42 30.72C46.58 30.25 46.96 30.14 47.42 30.14C49.55 30.15 51.68 30.14 53.81 30.15C54.14 30.15 54.44 30.1901 54.19 29.68C53.12 27.5 52.07 25.31 51.02 23.12C50.83 22.72 50.56 22.55 50.1 22.55C47.2 22.57 44.31 22.58 41.41 22.55C40.86 22.54 40.76 22.73 40.76 23.22C40.77 25.62 40.76 28.01 40.76 30.39ZM19.79 35.78C20.34 36.42 20.8 36.96 20.97 37.64C21.09 38.15 21.35 38.26 21.84 38.26C27 38.24 32.16 38.25 37.32 38.25C39.09 38.25 39.06 38.2501 39.09 36.4701C39.1 35.8601 38.88 35.7701 38.34 35.7701C33.27 35.7901 28.2 35.78 23.13 35.78C22.07 35.78 21.01 35.78 19.79 35.78ZM16.84 41.78C18.33 41.78 19.54 40.58 19.55 39.1101C19.56 37.6301 18.36 36.39 16.89 36.37C15.4 36.34 14.13 37.6101 14.13 39.09C14.14 40.56 15.36 41.77 16.84 41.78ZM47.15 41.7701C48.64 41.7901 49.86 40.6201 49.89 39.1301C49.92 37.6201 48.71 36.36 47.2 36.35C45.74 36.34 44.51 37.5601 44.48 39.0401C44.47 40.5201 45.67 41.75 47.15 41.7701Z" fill="#2090FF"/>
<path d="M18.17 25.4201C18.07 25.4001 17.95 25.3901 17.81 25.3901H2.33H2.04C1.91 25.3901 1.82 25.4001 1.73 25.4201C1.11 25.5301 0.770002 25.9501 0.800002 26.5401C0.830002 27.1001 1.2 27.4701 1.77 27.5401C1.88 27.5501 2 27.5601 2.11 27.5601H17.45H17.78C17.89 27.5601 18 27.5601 18.11 27.5401C18.68 27.4601 19.03 27.0701 19.05 26.5001C19.06 25.9601 18.73 25.5401 18.17 25.4201Z" fill="#2090FF"/>
<path d="M15.17 29.4201C15.07 29.4001 14.95 29.3901 14.81 29.3901L7.33 29.4001H7.04C6.91 29.4001 6.82 29.4101 6.73 29.4301C6.11 29.5301 5.77 29.9501 5.8 30.5401C5.83 31.1001 6.2 31.4701 6.77 31.5401C6.88 31.5501 7 31.5601 7.11 31.5601H14.45H14.78C14.89 31.5601 15 31.5601 15.11 31.5401C15.68 31.4601 16.03 31.0701 16.05 30.5001C16.06 29.9601 15.73 29.5401 15.17 29.4201Z" fill="#2090FF"/>
<path d="M5.52 23.2501C5.44 23.2501 5.35 23.2501 5.27 23.2401C4.64 23.1901 4.27 22.8201 4.24 22.2201C4.21 21.5601 4.6 21.1301 5.26 21.0901C5.53 21.0701 5.79 21.0701 6.06 21.0701L7.01 21.0801H14.2C14.31 21.0801 14.42 21.0801 14.52 21.0901C15.23 21.1201 15.64 21.5401 15.63 22.2001C15.62 22.8301 15.21 23.2201 14.54 23.2501C14.41 23.2501 13.92 23.2601 13.92 23.2601L5.52 23.2501Z" fill="#2090FF"/>
<path d="M6.54 23.0001C4.06 23.0001 8.25001 23.0001 5.77 23.0001C5.61001 23.0001 5.45001 23.0001 5.28001 22.9901C4.80001 22.9601 4.50001 22.7001 4.48001 22.2101C4.46001 21.6801 4.75001 21.3701 5.26001 21.3401C5.84001 21.3001 6.42001 21.3301 7.00001 21.3301C11.51 21.3301 9.36 21.3301 13.87 21.3301C14.08 21.3301 14.29 21.3201 14.49 21.3301C15.04 21.3601 15.38 21.6301 15.36 22.1901C15.35 22.7101 15.02 22.9801 14.51 23.0001C14.23 23.0101 13.96 23.0001 13.68 23.0001C11.3 23.0001 8.92 23.0001 6.54 23.0001Z" fill="#2090FF"/>
</g>
<defs>
<clipPath id="clip0_604_12945">
<rect width="56" height="56" fill="white" transform="translate(0.800003)"/>
</clipPath>
</defs>
</svg>
